<?xml version="1.0" encoding="utf-8" standalone="no"?>
<!DOCTYPE svg PUBLIC "-//W3C//DTD SVG 1.1//EN"
  "http://www.w3.org/Graphics/SVG/1.1/DTD/svg11.dtd">
<!-- Created with matplotlib (https://matplotlib.org/) -->
<svg height="407.275302pt" version="1.1" viewBox="0 0 1169.811 407.275302" width="1169.811pt" xmlns="http://www.w3.org/2000/svg" xmlns:xlink="http://www.w3.org/1999/xlink">
 <metadata>
  <rdf:RDF xmlns:cc="http://creativecommons.org/ns#" xmlns:dc="http://purl.org/dc/elements/1.1/" xmlns:rdf="http://www.w3.org/1999/02/22-rdf-syntax-ns#">
   <cc:Work>
    <dc:type rdf:resource="http://purl.org/dc/dcmitype/StillImage"/>
    <dc:date>2021-09-07T20:47:25.172973</dc:date>
    <dc:format>image/svg+xml</dc:format>
    <dc:creator>
     <cc:Agent>
      <dc:title>Matplotlib v3.3.4, https://matplotlib.org/</dc:title>
     </cc:Agent>
    </dc:creator>
   </cc:Work>
  </rdf:RDF>
 </metadata>
 <defs>
  <style type="text/css">*{stroke-linecap:butt;stroke-linejoin:round;}</style>
 </defs>
 <g id="figure_1">
  <g id="patch_1">
   <path d="M 0 407.275302 
L 1169.811 407.275302 
L 1169.811 0 
L 0 0 
z
" style="fill:none;"/>
  </g>
  <g id="axes_1">
   <g id="patch_2">
    <path clip-path="url(#pb67e36893a)" d="M 622.377375 285.631302 
L 564.237375 285.631302 
L 564.237375 212.140302 
L 622.377375 212.140302 
z
" style="fill:none;"/>
   </g>
   <g id="line2d_1">
    <path clip-path="url(#pb67e36893a)" d="M 622.377375 285.631302 
L 564.237375 285.631302 
L 564.237375 212.140302 
L 622.377375 212.140302 
L 622.377375 285.631302 
" style="fill:none;stroke:#000000;stroke-linecap:round;stroke-width:2;"/>
   </g>
   <g id="patch_3">
    <path clip-path="url(#pb67e36893a)" d="M 128.289375 137.405686 
C 132.346982 137.405686 136.238947 135.793582 139.108109 132.92442 
C 141.97727 130.055258 143.589375 126.163294 143.589375 122.105686 
C 143.589375 118.048079 141.97727 114.156114 139.108109 111.286953 
C 136.238947 108.417791 132.346982 106.805686 128.289375 106.805686 
C 124.231768 106.805686 120.339803 108.417791 117.470641 111.286953 
C 114.60148 114.156114 112.989375 118.048079 112.989375 122.105686 
C 112.989375 126.163294 114.60148 130.055258 117.470641 132.92442 
C 120.339803 135.793582 124.231768 137.405686 128.289375 137.405686 
z
" style="fill:none;stroke:#000000;stroke-linejoin:miter;stroke-width:2;"/>
   </g>
   <g id="patch_4">
    <path clip-path="url(#pb67e36893a)" d="M 220.089375 119.045686 
C 221.711877 119.045686 223.269586 118.400462 224.416869 117.25318 
C 225.564151 116.105897 226.209375 114.548189 226.209375 112.925686 
C 226.209375 111.303184 225.564151 109.745475 224.416869 108.598193 
C 223.269586 107.45091 221.711877 106.805686 220.089375 106.805686 
" style="fill:none;stroke:#000000;stroke-linejoin:miter;stroke-width:2;"/>
   </g>
   <g id="patch_5">
    <path clip-path="url(#pb67e36893a)" d="M 220.089375 131.285686 
C 221.711877 131.285686 223.269586 130.640462 224.416869 129.49318 
C 225.564151 128.345897 226.209375 126.788189 226.209375 125.165686 
C 226.209375 123.543184 225.564151 121.985475 224.416869 120.838193 
C 223.269586 119.69091 221.711877 119.045686 220.089375 119.045686 
" style="fill:none;stroke:#000000;stroke-linejoin:miter;stroke-width:2;"/>
   </g>
   <g id="patch_6">
    <path clip-path="url(#pb67e36893a)" d="M 220.089375 143.525686 
C 221.711877 143.525686 223.269586 142.880462 224.416869 141.73318 
C 225.564151 140.585897 226.209375 139.028189 226.209375 137.405686 
C 226.209375 135.783184 225.564151 134.225475 224.416869 133.078193 
C 223.269586 131.93091 221.711877 131.285686 220.089375 131.285686 
" style="fill:none;stroke:#000000;stroke-linejoin:miter;stroke-width:2;"/>
   </g>
   <g id="patch_7">
    <path clip-path="url(#pb67e36893a)" d="M 220.089375 155.765686 
C 221.711877 155.765686 223.269586 155.120462 224.416869 153.97318 
C 225.564151 152.825897 226.209375 151.268189 226.209375 149.645686 
C 226.209375 148.023184 225.564151 146.465475 224.416869 145.318193 
C 223.269586 144.17091 221.711877 143.525686 220.089375 143.525686 
" style="fill:none;stroke:#000000;stroke-linejoin:miter;stroke-width:2;"/>
   </g>
   <g id="patch_8">
    <path clip-path="url(#pb67e36893a)" d="M 220.089375 168.005686 
C 221.711877 168.005686 223.269586 167.360462 224.416869 166.21318 
C 225.564151 165.065897 226.209375 163.508189 226.209375 161.885686 
C 226.209375 160.263184 225.564151 158.705475 224.416869 157.558193 
C 223.269586 156.41091 221.711877 155.765686 220.089375 155.765686 
" style="fill:none;stroke:#000000;stroke-linejoin:miter;stroke-width:2;"/>
   </g>
   <g id="patch_9">
    <path clip-path="url(#pb67e36893a)" d="M 250.689375 76.205686 
C 249.066873 76.205686 247.509164 76.85091 246.361881 77.998193 
C 245.214599 79.145475 244.569375 80.703184 244.569375 82.325686 
C 244.569375 83.948189 245.214599 85.505897 246.361881 86.65318 
C 247.509164 87.800462 249.066873 88.445686 250.689375 88.445686 
" style="fill:none;stroke:#000000;stroke-linejoin:miter;stroke-width:2;"/>
   </g>
   <g id="patch_10">
    <path clip-path="url(#pb67e36893a)" d="M 250.689375 88.445686 
C 249.066873 88.445686 247.509164 89.09091 246.361881 90.238193 
C 245.214599 91.385475 244.569375 92.943184 244.569375 94.565686 
C 244.569375 96.188189 245.214599 97.745897 246.361881 98.89318 
C 247.509164 100.040462 249.066873 100.685686 250.689375 100.685686 
" style="fill:none;stroke:#000000;stroke-linejoin:miter;stroke-width:2;"/>
   </g>
   <g id="patch_11">
    <path clip-path="url(#pb67e36893a)" d="M 250.689375 100.685686 
C 249.066873 100.685686 247.509164 101.33091 246.361881 102.478193 
C 245.214599 103.625475 244.569375 105.183184 244.569375 106.805686 
C 244.569375 108.428189 245.214599 109.985897 246.361881 111.13318 
C 247.509164 112.280462 249.066873 112.925686 250.689375 112.925686 
" style="fill:none;stroke:#000000;stroke-linejoin:miter;stroke-width:2;"/>
   </g>
   <g id="patch_12">
    <path clip-path="url(#pb67e36893a)" d="M 250.689375 112.925686 
C 249.066873 112.925686 247.509164 113.57091 246.361881 114.718193 
C 245.214599 115.865475 244.569375 117.423184 244.569375 119.045686 
C 244.569375 120.668189 245.214599 122.225897 246.361881 123.37318 
C 247.509164 124.520462 249.066873 125.165686 250.689375 125.165686 
" style="fill:none;stroke:#000000;stroke-linejoin:miter;stroke-width:2;"/>
   </g>
   <g id="patch_13">
    <path clip-path="url(#pb67e36893a)" d="M 250.689375 125.165686 
C 249.066873 125.165686 247.509164 125.81091 246.361881 126.958193 
C 245.214599 128.105475 244.569375 129.663184 244.569375 131.285686 
C 244.569375 132.908189 245.214599 134.465897 246.361881 135.61318 
C 247.509164 136.760462 249.066873 137.405686 250.689375 137.405686 
" style="fill:none;stroke:#000000;stroke-linejoin:miter;stroke-width:2;"/>
   </g>
   <g id="patch_14">
    <path clip-path="url(#pb67e36893a)" d="M 250.689375 137.405686 
C 249.066873 137.405686 247.509164 138.05091 246.361881 139.198193 
C 245.214599 140.345475 244.569375 141.903184 244.569375 143.525686 
C 244.569375 145.148189 245.214599 146.705897 246.361881 147.85318 
C 247.509164 149.000462 249.066873 149.645686 250.689375 149.645686 
" style="fill:none;stroke:#000000;stroke-linejoin:miter;stroke-width:2;"/>
   </g>
   <g id="patch_15">
    <path clip-path="url(#pb67e36893a)" d="M 250.689375 149.645686 
C 249.066873 149.645686 247.509164 150.29091 246.361881 151.438193 
C 245.214599 152.585475 244.569375 154.143184 244.569375 155.765686 
C 244.569375 157.388189 245.214599 158.945897 246.361881 160.09318 
C 247.509164 161.240462 249.066873 161.885686 250.689375 161.885686 
" style="fill:none;stroke:#000000;stroke-linejoin:miter;stroke-width:2;"/>
   </g>
   <g id="patch_16">
    <path clip-path="url(#pb67e36893a)" d="M 250.689375 161.885686 
C 249.066873 161.885686 247.509164 162.53091 246.361881 163.678193 
C 245.214599 164.825475 244.569375 166.383184 244.569375 168.005686 
C 244.569375 169.628189 245.214599 171.185897 246.361881 172.33318 
C 247.509164 173.480462 249.066873 174.125686 250.689375 174.125686 
" style="fill:none;stroke:#000000;stroke-linejoin:miter;stroke-width:2;"/>
   </g>
   <g id="patch_17">
    <path clip-path="url(#pb67e36893a)" d="M 250.689375 174.125686 
C 249.066873 174.125686 247.509164 174.77091 246.361881 175.918193 
C 245.214599 177.065475 244.569375 178.623184 244.569375 180.245686 
C 244.569375 181.868189 245.214599 183.425897 246.361881 184.57318 
C 247.509164 185.720462 249.066873 186.365686 250.689375 186.365686 
" style="fill:none;stroke:#000000;stroke-linejoin:miter;stroke-width:2;"/>
   </g>
   <g id="patch_18">
    <path clip-path="url(#pb67e36893a)" d="M 250.689375 186.365686 
C 249.066873 186.365686 247.509164 187.01091 246.361881 188.158193 
C 245.214599 189.305475 244.569375 190.863184 244.569375 192.485686 
C 244.569375 194.108189 245.214599 195.665897 246.361881 196.81318 
C 247.509164 197.960462 249.066873 198.605686 250.689375 198.605686 
" style="fill:none;stroke:#000000;stroke-linejoin:miter;stroke-width:2;"/>
   </g>
   <g id="patch_19">
    <path clip-path="url(#pb67e36893a)" d="M 334.839375 127.460686 
L 342.489375 116.750686 
L 350.139375 127.460686 
z
" style="fill:none;stroke:#000000;stroke-linecap:round;stroke-width:2;"/>
   </g>
   <g id="patch_20">
    <path clip-path="url(#pb67e36893a)" d="M 350.139375 223.850686 
L 342.489375 234.560686 
L 334.839375 223.850686 
z
" style="fill:none;stroke:#000000;stroke-linecap:round;stroke-width:2;"/>
   </g>
   <g id="patch_21">
    <path clip-path="url(#pb67e36893a)" d="M 441.939375 116.750686 
L 434.289375 127.460686 
L 426.639375 116.750686 
z
" style="fill:none;stroke:#000000;stroke-linecap:round;stroke-width:2;"/>
   </g>
   <g id="patch_22">
    <path clip-path="url(#pb67e36893a)" d="M 426.639375 234.560686 
L 434.289375 223.850686 
L 441.939375 234.560686 
z
" style="fill:none;stroke:#000000;stroke-linecap:round;stroke-width:2;"/>
   </g>
   <g id="patch_23">
    <path clip-path="url(#pb67e36893a)" d="M 662.157375 120.391302 
C 666.620743 120.391302 670.901904 118.617987 674.057982 115.461909 
C 677.21406 112.305831 678.987375 108.02467 678.987375 103.561302 
C 678.987375 99.097934 677.21406 94.816773 674.057982 91.660695 
C 670.901904 88.504617 666.620743 86.731302 662.157375 86.731302 
C 657.694007 86.731302 653.412846 88.504617 650.256768 91.660695 
C 647.10069 94.816773 645.327375 99.097934 645.327375 103.561302 
C 645.327375 108.02467 647.10069 112.305831 650.256768 115.461909 
C 653.412846 118.617987 657.694007 120.391302 662.157375 120.391302 
z
" style="fill:none;stroke:#000000;stroke-linejoin:miter;stroke-width:2;"/>
   </g>
   <g id="patch_24">
    <path clip-path="url(#pb67e36893a)" d="M 671.559207 100.045531 
L 677.865375 97.390302 
L 676.205857 104.028374 
z
"/>
   </g>
   <g id="patch_25">
    <path clip-path="url(#pb67e36893a)" d="M 587.952375 264.211302 
L 598.662375 271.861302 
L 587.952375 279.511302 
z
" style="fill:none;stroke:#000000;stroke-linecap:round;stroke-width:2;"/>
   </g>
   <g id="patch_26">
    <path clip-path="url(#pb67e36893a)" d="M 602.709207 220.915531 
L 609.015375 218.260302 
L 607.355857 224.898374 
z
"/>
   </g>
   <g id="patch_27">
    <path clip-path="url(#pb67e36893a)" d="M 583.260375 304.042302 
L 585.555375 297.922302 
L 587.850375 304.042302 
z
"/>
   </g>
   <g id="patch_28">
    <path clip-path="url(#pb67e36893a)" d="M 595.500375 304.042302 
L 597.795375 297.922302 
L 600.090375 304.042302 
z
"/>
   </g>
   <g id="patch_29">
    <path clip-path="url(#pb67e36893a)" d="M 570.357375 346.831302 
C 574.414982 346.831302 578.306947 345.219197 581.176109 342.350036 
C 584.04527 339.480874 585.657375 335.588909 585.657375 331.531302 
C 585.657375 327.473694 584.04527 323.58173 581.176109 320.712568 
C 578.306947 317.843406 574.414982 316.231302 570.357375 316.231302 
C 566.299768 316.231302 562.407803 317.843406 559.538641 320.712568 
C 556.66948 323.58173 555.057375 327.473694 555.057375 331.531302 
C 555.057375 335.588909 556.66948 339.480874 559.538641 342.350036 
C 562.407803 345.219197 566.299768 346.831302 570.357375 346.831302 
z
" style="fill:none;stroke:#000000;stroke-linejoin:miter;stroke-width:2;"/>
   </g>
   <g id="patch_30">
    <path clip-path="url(#pb67e36893a)" d="M 775.275375 109.630302 
C 776.897877 109.630302 778.455586 108.985078 779.602869 107.837795 
C 780.750151 106.690513 781.395375 105.132804 781.395375 103.510302 
C 781.395375 101.887799 780.750151 100.330091 779.602869 99.182808 
C 778.455586 98.035526 776.897877 97.390302 775.275375 97.390302 
" style="fill:none;stroke:#000000;stroke-linejoin:miter;stroke-width:2;"/>
   </g>
   <g id="patch_31">
    <path clip-path="url(#pb67e36893a)" d="M 775.275375 121.870302 
C 776.897877 121.870302 778.455586 121.225078 779.602869 120.077795 
C 780.750151 118.930513 781.395375 117.372804 781.395375 115.750302 
C 781.395375 114.127799 780.750151 112.570091 779.602869 111.422808 
C 778.455586 110.275526 776.897877 109.630302 775.275375 109.630302 
" style="fill:none;stroke:#000000;stroke-linejoin:miter;stroke-width:2;"/>
   </g>
   <g id="patch_32">
    <path clip-path="url(#pb67e36893a)" d="M 775.275375 134.110302 
C 776.897877 134.110302 778.455586 133.465078 779.602869 132.317795 
C 780.750151 131.170513 781.395375 129.612804 781.395375 127.990302 
C 781.395375 126.367799 780.750151 124.810091 779.602869 123.662808 
C 778.455586 122.515526 776.897877 121.870302 775.275375 121.870302 
" style="fill:none;stroke:#000000;stroke-linejoin:miter;stroke-width:2;"/>
   </g>
   <g id="patch_33">
    <path clip-path="url(#pb67e36893a)" d="M 775.275375 146.350302 
C 776.897877 146.350302 778.455586 145.705078 779.602869 144.557795 
C 780.750151 143.410513 781.395375 141.852804 781.395375 140.230302 
C 781.395375 138.607799 780.750151 137.050091 779.602869 135.902808 
C 778.455586 134.755526 776.897877 134.110302 775.275375 134.110302 
" style="fill:none;stroke:#000000;stroke-linejoin:miter;stroke-width:2;"/>
   </g>
   <g id="patch_34">
    <path clip-path="url(#pb67e36893a)" d="M 775.275375 158.590302 
C 776.897877 158.590302 778.455586 157.945078 779.602869 156.797795 
C 780.750151 155.650513 781.395375 154.092804 781.395375 152.470302 
C 781.395375 150.847799 780.750151 149.290091 779.602869 148.142808 
C 778.455586 146.995526 776.897877 146.350302 775.275375 146.350302 
" style="fill:none;stroke:#000000;stroke-linejoin:miter;stroke-width:2;"/>
   </g>
   <g id="patch_35">
    <path clip-path="url(#pb67e36893a)" d="M 805.875375 66.790302 
C 804.252873 66.790302 802.695164 67.435526 801.547881 68.582808 
C 800.400599 69.730091 799.755375 71.287799 799.755375 72.910302 
C 799.755375 74.532804 800.400599 76.090513 801.547881 77.237795 
C 802.695164 78.385078 804.252873 79.030302 805.875375 79.030302 
" style="fill:none;stroke:#000000;stroke-linejoin:miter;stroke-width:2;"/>
   </g>
   <g id="patch_36">
    <path clip-path="url(#pb67e36893a)" d="M 805.875375 79.030302 
C 804.252873 79.030302 802.695164 79.675526 801.547881 80.822808 
C 800.400599 81.970091 799.755375 83.527799 799.755375 85.150302 
C 799.755375 86.772804 800.400599 88.330513 801.547881 89.477795 
C 802.695164 90.625078 804.252873 91.270302 805.875375 91.270302 
" style="fill:none;stroke:#000000;stroke-linejoin:miter;stroke-width:2;"/>
   </g>
   <g id="patch_37">
    <path clip-path="url(#pb67e36893a)" d="M 805.875375 91.270302 
C 804.252873 91.270302 802.695164 91.915526 801.547881 93.062808 
C 800.400599 94.210091 799.755375 95.767799 799.755375 97.390302 
C 799.755375 99.012804 800.400599 100.570513 801.547881 101.717795 
C 802.695164 102.865078 804.252873 103.510302 805.875375 103.510302 
" style="fill:none;stroke:#000000;stroke-linejoin:miter;stroke-width:2;"/>
   </g>
   <g id="patch_38">
    <path clip-path="url(#pb67e36893a)" d="M 805.875375 103.510302 
C 804.252873 103.510302 802.695164 104.155526 801.547881 105.302808 
C 800.400599 106.450091 799.755375 108.007799 799.755375 109.630302 
C 799.755375 111.252804 800.400599 112.810513 801.547881 113.957795 
C 802.695164 115.105078 804.252873 115.750302 805.875375 115.750302 
" style="fill:none;stroke:#000000;stroke-linejoin:miter;stroke-width:2;"/>
   </g>
   <g id="patch_39">
    <path clip-path="url(#pb67e36893a)" d="M 805.875375 115.750302 
C 804.252873 115.750302 802.695164 116.395526 801.547881 117.542808 
C 800.400599 118.690091 799.755375 120.247799 799.755375 121.870302 
C 799.755375 123.492804 800.400599 125.050513 801.547881 126.197795 
C 802.695164 127.345078 804.252873 127.990302 805.875375 127.990302 
" style="fill:none;stroke:#000000;stroke-linejoin:miter;stroke-width:2;"/>
   </g>
   <g id="patch_40">
    <path clip-path="url(#pb67e36893a)" d="M 805.875375 127.990302 
C 804.252873 127.990302 802.695164 128.635526 801.547881 129.782808 
C 800.400599 130.930091 799.755375 132.487799 799.755375 134.110302 
C 799.755375 135.732804 800.400599 137.290513 801.547881 138.437795 
C 802.695164 139.585078 804.252873 140.230302 805.875375 140.230302 
" style="fill:none;stroke:#000000;stroke-linejoin:miter;stroke-width:2;"/>
   </g>
   <g id="patch_41">
    <path clip-path="url(#pb67e36893a)" d="M 805.875375 140.230302 
C 804.252873 140.230302 802.695164 140.875526 801.547881 142.022808 
C 800.400599 143.170091 799.755375 144.727799 799.755375 146.350302 
C 799.755375 147.972804 800.400599 149.530513 801.547881 150.677795 
C 802.695164 151.825078 804.252873 152.470302 805.875375 152.470302 
" style="fill:none;stroke:#000000;stroke-linejoin:miter;stroke-width:2;"/>
   </g>
   <g id="patch_42">
    <path clip-path="url(#pb67e36893a)" d="M 805.875375 152.470302 
C 804.252873 152.470302 802.695164 153.115526 801.547881 154.262808 
C 800.400599 155.410091 799.755375 156.967799 799.755375 158.590302 
C 799.755375 160.212804 800.400599 161.770513 801.547881 162.917795 
C 802.695164 164.065078 804.252873 164.710302 805.875375 164.710302 
" style="fill:none;stroke:#000000;stroke-linejoin:miter;stroke-width:2;"/>
   </g>
   <g id="patch_43">
    <path clip-path="url(#pb67e36893a)" d="M 805.875375 164.710302 
C 804.252873 164.710302 802.695164 165.355526 801.547881 166.502808 
C 800.400599 167.650091 799.755375 169.207799 799.755375 170.830302 
C 799.755375 172.452804 800.400599 174.010513 801.547881 175.157795 
C 802.695164 176.305078 804.252873 176.950302 805.875375 176.950302 
" style="fill:none;stroke:#000000;stroke-linejoin:miter;stroke-width:2;"/>
   </g>
   <g id="patch_44">
    <path clip-path="url(#pb67e36893a)" d="M 805.875375 176.950302 
C 804.252873 176.950302 802.695164 177.595526 801.547881 178.742808 
C 800.400599 179.890091 799.755375 181.447799 799.755375 183.070302 
C 799.755375 184.692804 800.400599 186.250513 801.547881 187.397795 
C 802.695164 188.545078 804.252873 189.190302 805.875375 189.190302 
" style="fill:none;stroke:#000000;stroke-linejoin:miter;stroke-width:2;"/>
   </g>
   <g id="patch_45">
    <path clip-path="url(#pb67e36893a)" d="M 938.220375 59.140302 
L 948.930375 66.790302 
L 938.220375 74.440302 
z
" style="fill:none;stroke:#000000;stroke-linecap:round;stroke-width:2;"/>
   </g>
   <g id="line2d_2">
    <path clip-path="url(#pb67e36893a)" d="M 128.289375 168.005686 
L 128.289375 180.245686 
L 120.639375 180.245686 
L 135.939375 180.245686 
M 122.934375 183.917686 
L 133.644375 183.917686 
M 126.759375 187.589686 
L 129.819375 187.589686 
" style="fill:none;stroke:#000000;stroke-linecap:round;stroke-width:2;"/>
   </g>
   <g id="line2d_3">
    <path clip-path="url(#pb67e36893a)" d="M 128.289375 168.005686 
L 128.289375 137.405686 
L 128.289375 137.405686 
M 128.289375 106.805686 
L 128.289375 106.805686 
L 128.289375 76.205686 
" style="fill:none;stroke:#000000;stroke-linecap:round;stroke-width:2;"/>
   </g>
   <g id="line2d_4">
    <path clip-path="url(#pb67e36893a)" d="M 135.939375 122.105686 
L 135.301875 120.521714 
L 134.664375 119.045686 
L 134.026875 117.778193 
L 133.389375 116.805611 
L 132.751875 116.19422 
L 132.114375 115.985686 
L 131.476875 116.19422 
L 130.839375 116.805611 
L 130.201875 117.778193 
L 129.564375 119.045686 
L 128.926875 120.521714 
L 128.289375 122.105686 
L 127.651875 123.689659 
L 127.014375 125.165686 
L 126.376875 126.43318 
L 125.739375 127.405762 
L 125.101875 128.017152 
L 124.464375 128.225686 
L 123.826875 128.017152 
L 123.189375 127.405762 
L 122.551875 126.43318 
L 121.914375 125.165686 
L 121.276875 123.689659 
L 120.639375 122.105686 
" style="fill:none;stroke:#000000;stroke-linecap:round;stroke-width:2;"/>
   </g>
   <g id="line2d_5">
    <path clip-path="url(#pb67e36893a)" d="M 128.289375 76.205686 
L 174.189375 76.205686 
L 220.089375 76.205686 
" style="fill:none;stroke:#000000;stroke-linecap:round;stroke-width:2;"/>
   </g>
   <g id="line2d_6">
    <path clip-path="url(#pb67e36893a)" d="M 128.289375 168.005686 
L 174.189375 168.005686 
L 220.089375 168.005686 
" style="fill:none;stroke:#000000;stroke-linecap:round;stroke-width:2;"/>
   </g>
   <g id="line2d_7">
    <path clip-path="url(#pb67e36893a)" d="M 232.329375 76.205686 
L 232.329375 198.605686 
" style="fill:none;stroke:#000000;stroke-linecap:round;stroke-width:2;"/>
   </g>
   <g id="line2d_8">
    <path clip-path="url(#pb67e36893a)" d="M 238.449375 76.205686 
L 238.449375 198.605686 
" style="fill:none;stroke:#000000;stroke-linecap:round;stroke-width:2;"/>
   </g>
   <g id="line2d_9">
    <path clip-path="url(#pb67e36893a)" d="M 220.089375 76.205686 
L 220.089375 91.505686 
L 220.089375 106.805686 
" style="fill:none;stroke:#000000;stroke-linecap:round;stroke-width:2;"/>
   </g>
   <g id="line2d_10">
    <path clip-path="url(#pb67e36893a)" d="M 250.689375 76.205686 
L 296.589375 76.205686 
L 342.489375 76.205686 
" style="fill:none;stroke:#000000;stroke-linecap:round;stroke-width:2;"/>
   </g>
   <g id="line2d_11">
    <path clip-path="url(#pb67e36893a)" d="M 250.689375 198.605686 
L 250.689375 244.505686 
L 250.689375 290.405686 
" style="fill:none;stroke:#000000;stroke-linecap:round;stroke-width:2;"/>
   </g>
   <g id="line2d_12">
    <path clip-path="url(#pb67e36893a)" d="M 250.689375 290.405686 
L 296.589375 290.405686 
L 342.489375 290.405686 
" style="fill:none;stroke:#000000;stroke-linecap:round;stroke-width:2;"/>
   </g>
   <g id="line2d_13">
    <path clip-path="url(#pb67e36893a)" d="M 342.489375 76.205686 
L 342.489375 116.750686 
M 334.839375 116.750686 
L 350.139375 116.750686 
M 342.489375 127.460686 
L 342.489375 168.005686 
" style="fill:none;stroke:#000000;stroke-linecap:round;stroke-width:2;"/>
   </g>
   <g id="line2d_14">
    <path clip-path="url(#pb67e36893a)" d="M 342.489375 168.005686 
L 353.964375 168.005686 
L 365.439375 168.005686 
" style="fill:none;stroke:#000000;stroke-linecap:round;stroke-width:2;"/>
   </g>
   <g id="line2d_15">
    <path clip-path="url(#pb67e36893a)" d="M 365.439375 168.005686 
L 365.439375 132.697994 
L 365.439375 97.390302 
" style="fill:none;stroke:#000000;stroke-linecap:round;stroke-width:2;"/>
   </g>
   <g id="line2d_16">
    <path clip-path="url(#pb67e36893a)" d="M 365.439375 97.390302 
L 457.239375 97.390302 
L 549.039375 97.390302 
" style="fill:none;stroke:#000000;stroke-linecap:round;stroke-width:2;"/>
   </g>
   <g id="line2d_17">
    <path clip-path="url(#pb67e36893a)" d="M 342.489375 76.205686 
L 388.389375 76.205686 
L 434.289375 76.205686 
" style="fill:none;stroke:#000000;stroke-linecap:round;stroke-width:2;"/>
   </g>
   <g id="line2d_18">
    <path clip-path="url(#pb67e36893a)" d="M 342.489375 168.005686 
L 342.489375 223.850686 
M 350.139375 234.560686 
L 334.839375 234.560686 
M 342.489375 234.560686 
L 342.489375 290.405686 
" style="fill:none;stroke:#000000;stroke-linecap:round;stroke-width:2;"/>
   </g>
   <g id="line2d_19">
    <path clip-path="url(#pb67e36893a)" d="M 342.489375 290.405686 
L 388.389375 290.405686 
L 434.289375 290.405686 
" style="fill:none;stroke:#000000;stroke-linecap:round;stroke-width:2;"/>
   </g>
   <g id="line2d_20">
    <path clip-path="url(#pb67e36893a)" d="M 434.289375 76.205686 
L 434.289375 116.750686 
M 441.939375 127.460686 
L 426.639375 127.460686 
M 434.289375 127.460686 
L 434.289375 168.005686 
" style="fill:none;stroke:#000000;stroke-linecap:round;stroke-width:2;"/>
   </g>
   <g id="line2d_21">
    <path clip-path="url(#pb67e36893a)" d="M 434.289375 168.005686 
L 446.529375 168.005686 
L 446.529375 175.655686 
L 446.529375 160.355686 
M 450.201375 173.360686 
L 450.201375 162.650686 
M 453.873375 169.535686 
L 453.873375 166.475686 
" style="fill:none;stroke:#000000;stroke-linecap:round;stroke-width:2;"/>
   </g>
   <g id="line2d_22">
    <path clip-path="url(#pb67e36893a)" d="M 434.289375 168.005686 
L 434.289375 223.850686 
M 426.639375 223.850686 
L 441.939375 223.850686 
M 434.289375 234.560686 
L 434.289375 290.405686 
" style="fill:none;stroke:#000000;stroke-linecap:round;stroke-width:2;"/>
   </g>
   <g id="line2d_23">
    <path clip-path="url(#pb67e36893a)" d="M 549.039375 97.390302 
L 549.039375 127.990302 
L 556.689375 130.540302 
L 541.389375 135.640302 
L 556.689375 140.740302 
L 541.389375 145.840302 
L 556.689375 150.940302 
L 541.389375 156.040302 
L 549.039375 158.590302 
L 549.039375 189.190302 
" style="fill:none;stroke:#000000;stroke-linecap:round;stroke-width:2;"/>
   </g>
   <g id="line2d_24">
    <path clip-path="url(#pb67e36893a)" d="M 549.039375 189.190302 
L 560.514375 189.190302 
L 571.989375 189.190302 
" style="fill:none;stroke:#000000;stroke-linecap:round;stroke-width:2;"/>
   </g>
   <g id="line2d_25">
    <path clip-path="url(#pb67e36893a)" d="M 571.989375 189.190302 
L 571.989375 200.665302 
L 571.989375 212.140302 
" style="fill:none;stroke:#000000;stroke-linecap:round;stroke-width:2;"/>
   </g>
   <g id="line2d_26">
    <path clip-path="url(#pb67e36893a)" d="M 549.039375 97.390302 
L 594.939375 97.390302 
L 640.839375 97.390302 
" style="fill:none;stroke:#000000;stroke-linecap:round;stroke-width:2;"/>
   </g>
   <g id="line2d_27">
    <path clip-path="url(#pb67e36893a)" d="M 662.157375 120.391302 
L 662.157375 109.171302 
" style="fill:none;stroke:#000000;stroke-linecap:round;stroke-width:2;"/>
   </g>
   <g id="line2d_28">
    <path clip-path="url(#pb67e36893a)" d="M 650.937375 109.171302 
L 673.377375 109.171302 
" style="fill:none;stroke:#000000;stroke-linecap:round;stroke-width:2;"/>
   </g>
   <g id="line2d_29">
    <path clip-path="url(#pb67e36893a)" d="M 656.547375 109.171302 
L 646.449375 97.390302 
L 640.839375 97.390302 
" style="fill:none;stroke:#000000;stroke-linecap:round;stroke-width:2;"/>
   </g>
   <g id="line2d_30">
    <path clip-path="url(#pb67e36893a)" d="M 667.767375 109.171302 
L 677.865375 97.390302 
L 683.475375 97.390302 
" style="fill:none;stroke:#000000;stroke-linecap:round;stroke-width:2;"/>
   </g>
   <g id="line2d_31">
    <path clip-path="url(#pb67e36893a)" d="M 667.767375 109.171302 
L 673.882532 102.036952 
" style="fill:none;stroke:#000000;stroke-linecap:square;stroke-width:2;"/>
   </g>
   <g id="line2d_32">
    <path clip-path="url(#pb67e36893a)" d="M 570.357375 271.861302 
L 587.952375 271.861302 
M 598.662375 264.211302 
L 598.662375 279.511302 
M 598.662375 271.861302 
L 616.257375 271.861302 
" style="fill:none;stroke:#000000;stroke-linecap:round;stroke-width:2;"/>
   </g>
   <g id="line2d_33">
    <path clip-path="url(#pb67e36893a)" d="M 582.087375 230.041302 
L 604.527375 230.041302 
" style="fill:none;stroke:#000000;stroke-linecap:round;stroke-width:2;"/>
   </g>
   <g id="line2d_34">
    <path clip-path="url(#pb67e36893a)" d="M 587.697375 230.041302 
L 577.599375 218.260302 
L 571.989375 218.260302 
" style="fill:none;stroke:#000000;stroke-linecap:round;stroke-width:2;"/>
   </g>
   <g id="line2d_35">
    <path clip-path="url(#pb67e36893a)" d="M 598.917375 230.041302 
L 609.015375 218.260302 
L 614.625375 218.260302 
" style="fill:none;stroke:#000000;stroke-linecap:round;stroke-width:2;"/>
   </g>
   <g id="line2d_36">
    <path clip-path="url(#pb67e36893a)" d="M 598.917375 230.041302 
L 605.032532 222.906952 
" style="fill:none;stroke:#000000;stroke-linecap:square;stroke-width:2;"/>
   </g>
   <g id="line2d_37">
    <path clip-path="url(#pb67e36893a)" d="M 587.187375 256.561302 
L 587.187375 247.381302 
L 587.187375 244.321302 
" style="fill:none;stroke:#000000;stroke-linecap:round;stroke-width:2;"/>
   </g>
   <g id="line2d_38">
    <path clip-path="url(#pb67e36893a)" d="M 585.555375 304.042302 
L 585.555375 304.042302 
" style="fill:none;stroke:#000000;stroke-linecap:square;stroke-width:2;"/>
   </g>
   <g id="line2d_39">
    <path clip-path="url(#pb67e36893a)" d="M 599.427375 256.561302 
L 599.427375 247.381302 
L 599.427375 244.321302 
" style="fill:none;stroke:#000000;stroke-linecap:round;stroke-width:2;"/>
   </g>
   <g id="line2d_40">
    <path clip-path="url(#pb67e36893a)" d="M 597.795375 304.042302 
L 597.795375 304.042302 
" style="fill:none;stroke:#000000;stroke-linecap:square;stroke-width:2;"/>
   </g>
   <g id="line2d_41">
    <path clip-path="url(#pb67e36893a)" d="M 571.989375 218.260302 
L 571.989375 215.200302 
L 571.989375 212.140302 
" style="fill:none;stroke:#000000;stroke-linecap:round;stroke-width:2;"/>
   </g>
   <g id="line2d_42">
    <path clip-path="url(#pb67e36893a)" d="M 614.625375 218.260302 
L 614.625375 215.200302 
L 614.625375 212.140302 
" style="fill:none;stroke:#000000;stroke-linecap:round;stroke-width:2;"/>
   </g>
   <g id="line2d_43">
    <path clip-path="url(#pb67e36893a)" d="M 570.357375 271.861302 
L 570.357375 278.746302 
L 570.357375 285.631302 
" style="fill:none;stroke:#000000;stroke-linecap:round;stroke-width:2;"/>
   </g>
   <g id="line2d_44">
    <path clip-path="url(#pb67e36893a)" d="M 616.257375 271.861302 
L 616.257375 278.746302 
L 616.257375 285.631302 
" style="fill:none;stroke:#000000;stroke-linecap:round;stroke-width:2;"/>
   </g>
   <g id="line2d_45">
    <path clip-path="url(#pb67e36893a)" d="M 614.625375 212.140302 
L 614.625375 200.665302 
L 614.625375 189.190302 
" style="fill:none;stroke:#000000;stroke-linecap:round;stroke-width:2;"/>
   </g>
   <g id="line2d_46">
    <path clip-path="url(#pb67e36893a)" d="M 614.625375 189.190302 
L 637.575375 189.190302 
L 660.525375 189.190302 
" style="fill:none;stroke:#000000;stroke-linecap:round;stroke-width:2;"/>
   </g>
   <g id="line2d_47">
    <path clip-path="url(#pb67e36893a)" d="M 660.525375 189.190302 
L 660.525375 154.790802 
L 660.525375 120.391302 
" style="fill:none;stroke:#000000;stroke-linecap:round;stroke-width:2;"/>
   </g>
   <g id="line2d_48">
    <path clip-path="url(#pb67e36893a)" d="M 570.357375 285.631302 
L 570.357375 316.231302 
L 570.357375 316.231302 
M 570.357375 346.831302 
L 570.357375 346.831302 
L 570.357375 377.431302 
" style="fill:none;stroke:#000000;stroke-linecap:round;stroke-width:2;"/>
   </g>
   <g id="line2d_49">
    <path clip-path="url(#pb67e36893a)" d="M 561.177375 334.591302 
L 565.767375 334.591302 
L 565.767375 330.001302 
L 574.947375 330.001302 
L 574.947375 334.591302 
L 579.537375 334.591302 
" style="fill:none;stroke:#000000;stroke-linecap:round;stroke-width:2;"/>
   </g>
   <g id="line2d_50">
    <path clip-path="url(#pb67e36893a)" d="M 570.357375 377.431302 
L 570.357375 389.671302 
L 562.707375 389.671302 
L 578.007375 389.671302 
M 565.002375 393.343302 
L 575.712375 393.343302 
M 568.827375 397.015302 
L 571.887375 397.015302 
" style="fill:none;stroke:#000000;stroke-linecap:round;stroke-width:2;"/>
   </g>
   <g id="line2d_51">
    <path clip-path="url(#pb67e36893a)" d="M 616.257375 285.631302 
L 616.257375 297.871302 
L 608.607375 297.871302 
L 623.907375 297.871302 
M 610.902375 301.543302 
L 621.612375 301.543302 
M 614.727375 305.215302 
L 617.787375 305.215302 
" style="fill:none;stroke:#000000;stroke-linecap:round;stroke-width:2;"/>
   </g>
   <g id="line2d_52">
    <path clip-path="url(#pb67e36893a)" d="M 683.475375 97.390302 
L 729.375375 97.390302 
L 775.275375 97.390302 
" style="fill:none;stroke:#000000;stroke-linecap:round;stroke-width:2;"/>
   </g>
   <g id="line2d_53">
    <path clip-path="url(#pb67e36893a)" d="M 787.515375 66.790302 
L 787.515375 189.190302 
" style="fill:none;stroke:#000000;stroke-linecap:round;stroke-width:2;"/>
   </g>
   <g id="line2d_54">
    <path clip-path="url(#pb67e36893a)" d="M 793.635375 66.790302 
L 793.635375 189.190302 
" style="fill:none;stroke:#000000;stroke-linecap:round;stroke-width:2;"/>
   </g>
   <g id="line2d_55">
    <path clip-path="url(#pb67e36893a)" d="M 775.275375 158.590302 
L 775.275375 170.830302 
L 767.625375 170.830302 
L 782.925375 170.830302 
M 769.920375 174.502302 
L 780.630375 174.502302 
M 773.745375 178.174302 
L 776.805375 178.174302 
" style="fill:none;stroke:#000000;stroke-linecap:round;stroke-width:2;"/>
   </g>
   <g id="line2d_56">
    <path clip-path="url(#pb67e36893a)" d="M 805.875375 66.790302 
L 851.775375 66.790302 
L 897.675375 66.790302 
" style="fill:none;stroke:#000000;stroke-linecap:round;stroke-width:2;"/>
   </g>
   <g id="line2d_57">
    <path clip-path="url(#pb67e36893a)" d="M 805.875375 189.190302 
L 851.775375 189.190302 
L 897.675375 189.190302 
" style="fill:none;stroke:#000000;stroke-linecap:round;stroke-width:2;"/>
   </g>
   <g id="line2d_58">
    <path clip-path="url(#pb67e36893a)" d="M 897.675375 66.790302 
L 938.220375 66.790302 
M 948.930375 59.140302 
L 948.930375 74.440302 
M 948.930375 66.790302 
L 989.475375 66.790302 
" style="fill:none;stroke:#000000;stroke-linecap:round;stroke-width:2;"/>
   </g>
   <g id="line2d_59">
    <path clip-path="url(#pb67e36893a)" d="M 989.475375 66.790302 
L 1020.075375 66.790302 
L 1020.189334 64.270743 
L 1020.535871 61.728461 
L 1021.107276 59.376672 
L 1021.876982 57.412619 
L 1022.80179 56.001021 
L 1023.305177 55.541503 
L 1023.825492 55.26027 
L 1024.354451 55.16325 
L 1024.883587 55.252489 
L 1025.404432 55.526105 
L 1025.908689 55.978332 
L 1026.388415 56.599636 
L 1027.24523 58.293807 
L 1027.924372 60.466532 
L 1028.390237 62.935586 
L 1028.625109 65.493894 
L 1028.630645 67.926894 
L 1028.427735 70.030535 
L 1028.054751 71.628388 
L 1027.564331 72.586442 
L 1027.294364 72.798122 
L 1027.01896 72.824348 
L 1026.746608 72.664569 
L 1026.485732 72.322153 
L 1026.030723 71.121974 
L 1025.71345 69.32447 
L 1025.581876 67.080393 
L 1025.668391 64.577952 
L 1025.987094 62.027022 
L 1026.532611 59.641546 
L 1027.280545 57.62159 
L 1028.189523 56.136565 
L 1028.687662 55.63564 
L 1029.204666 55.311017 
L 1029.732321 55.169537 
L 1030.262189 55.214184 
L 1030.785785 55.444015 
L 1031.294756 55.854187 
L 1031.781056 56.436054 
L 1032.656017 58.062452 
L 1033.358642 60.186806 
L 1033.851357 62.630951 
L 1034.114194 65.189898 
L 1034.146465 67.649034 
L 1033.966817 69.802114 
L 1033.611672 71.468563 
L 1033.132171 72.508618 
L 1032.864757 72.764204 
L 1032.589884 72.835052 
L 1032.316028 72.719668 
L 1032.051646 72.420486 
L 1031.583954 71.29969 
L 1031.247387 69.566664 
L 1031.091527 67.366753 
L 1031.150801 64.884461 
L 1031.441593 62.327974 
L 1031.960869 59.9117 
L 1032.686434 57.838289 
L 1033.57879 56.281634 
L 1034.071231 55.73991 
L 1034.584452 55.37229 
L 1035.110319 55.186522 
L 1035.640431 55.186522 
L 1036.166298 55.37229 
L 1036.679519 55.73991 
L 1037.17196 56.281634 
L 1038.064316 57.838289 
L 1038.789881 59.9117 
L 1039.309157 62.327974 
L 1039.599949 64.884461 
L 1039.659223 67.366753 
L 1039.503363 69.566664 
L 1039.166796 71.29969 
L 1038.699104 72.420486 
L 1038.434722 72.719668 
L 1038.160866 72.835052 
L 1037.885993 72.764204 
L 1037.618579 72.508618 
L 1037.139078 71.468563 
L 1036.783933 69.802114 
L 1036.604285 67.649034 
L 1036.636556 65.189898 
L 1036.899393 62.630951 
L 1037.392108 60.186806 
L 1038.094733 58.062452 
L 1038.969694 56.436054 
L 1039.455994 55.854187 
L 1039.964965 55.444015 
L 1040.488561 55.214184 
L 1041.018429 55.169537 
L 1041.546084 55.311017 
L 1042.063088 55.63564 
L 1042.561227 56.136565 
L 1043.032684 56.803232 
L 1043.867252 58.574389 
L 1044.518154 60.800567 
L 1044.952155 63.29506 
L 1045.154209 65.848658 
L 1045.128728 68.247195 
L 1044.899201 70.28951 
L 1044.506235 71.804316 
L 1044.004142 72.664569 
L 1043.73179 72.824348 
L 1043.456386 72.798122 
L 1043.186419 72.586442 
L 1042.930262 72.193772 
L 1042.49125 70.902207 
L 1042.197524 69.031747 
L 1042.095073 66.739265 
L 1042.213846 64.217029 
L 1042.565234 61.676574 
L 1043.141124 59.330964 
L 1043.91457 57.376923 
L 1044.842061 55.978332 
L 1045.346318 55.526105 
L 1045.867163 55.252489 
L 1046.396299 55.16325 
L 1046.925258 55.26027 
L 1047.445573 55.541503 
L 1047.94896 56.001021 
L 1048.427493 56.62914 
L 1049.281062 58.334943 
L 1049.956048 60.515849 
L 1050.417196 62.988949 
L 1050.647184 65.546827 
L 1050.675375 66.790302 
L 1081.275375 66.790302 
L 1081.275375 66.790302 
" style="fill:none;stroke:#000000;stroke-linecap:round;stroke-width:2;"/>
   </g>
   <g id="line2d_60">
    <path clip-path="url(#pb67e36893a)" d="M 1081.275375 66.790302 
L 1081.275375 109.936302 
M 1088.925375 109.936302 
L 1073.625375 109.936302 
M 1088.925375 115.444302 
L 1073.625375 115.444302 
M 1081.275375 115.444302 
L 1081.275375 158.590302 
" style="fill:none;stroke:#000000;stroke-linecap:round;stroke-width:2;"/>
   </g>
   <g id="line2d_61">
    <path clip-path="url(#pb67e36893a)" d="M 1081.275375 158.590302 
L 1081.275375 173.890302 
L 1081.275375 189.190302 
" style="fill:none;stroke:#000000;stroke-linecap:round;stroke-width:2;"/>
   </g>
   <g id="line2d_62">
    <path clip-path="url(#pb67e36893a)" d="M 1081.275375 189.190302 
L 1050.675375 189.190302 
L 1050.561416 191.70986 
L 1050.214879 194.252143 
L 1049.643474 196.603931 
L 1048.873768 198.567985 
L 1047.94896 199.979582 
L 1047.445573 200.439101 
L 1046.925258 200.720334 
L 1046.396299 200.817354 
L 1045.867163 200.728115 
L 1045.346318 200.454498 
L 1044.842061 200.002272 
L 1044.362335 199.380968 
L 1043.50552 197.686796 
L 1042.826378 195.514072 
L 1042.360513 193.045018 
L 1042.125641 190.48671 
L 1042.120105 188.053709 
L 1042.323015 185.950068 
L 1042.695999 184.352216 
L 1043.186419 183.394161 
L 1043.456386 183.182482 
L 1043.73179 183.156255 
L 1044.004142 183.316034 
L 1044.265018 183.658451 
L 1044.720027 184.858629 
L 1045.0373 186.656134 
L 1045.168874 188.90021 
L 1045.082359 191.402651 
L 1044.763656 193.953581 
L 1044.218139 196.339057 
L 1043.470205 198.359013 
L 1042.561227 199.844039 
L 1042.063088 200.344963 
L 1041.546084 200.669587 
L 1041.018429 200.811066 
L 1040.488561 200.76642 
L 1039.964965 200.536588 
L 1039.455994 200.126417 
L 1038.969694 199.54455 
L 1038.094733 197.918152 
L 1037.392108 195.793797 
L 1036.899393 193.349653 
L 1036.636556 190.790705 
L 1036.604285 188.33157 
L 1036.783933 186.178489 
L 1037.139078 184.51204 
L 1037.618579 183.471985 
L 1037.885993 183.2164 
L 1038.160866 183.145552 
L 1038.434722 183.260935 
L 1038.699104 183.560117 
L 1039.166796 184.680913 
L 1039.503363 186.41394 
L 1039.659223 188.61385 
L 1039.599949 191.096142 
L 1039.309157 193.65263 
L 1038.789881 196.068904 
L 1038.064316 198.142315 
L 1037.17196 199.698969 
L 1036.679519 200.240693 
L 1036.166298 200.608313 
L 1035.640431 200.794081 
L 1035.110319 200.794081 
L 1034.584452 200.608313 
L 1034.071231 200.240693 
L 1033.57879 199.698969 
L 1032.686434 198.142315 
L 1031.960869 196.068904 
L 1031.441593 193.65263 
L 1031.150801 191.096142 
L 1031.091527 188.61385 
L 1031.247387 186.41394 
L 1031.583954 184.680913 
L 1032.051646 183.560117 
L 1032.316028 183.260935 
L 1032.589884 183.145552 
L 1032.864757 183.2164 
L 1033.132171 183.471985 
L 1033.611672 184.51204 
L 1033.966817 186.178489 
L 1034.146465 188.33157 
L 1034.114194 190.790705 
L 1033.851357 193.349653 
L 1033.358642 195.793797 
L 1032.656017 197.918152 
L 1031.781056 199.54455 
L 1031.294756 200.126417 
L 1030.785785 200.536588 
L 1030.262189 200.76642 
L 1029.732321 200.811066 
L 1029.204666 200.669587 
L 1028.687662 200.344963 
L 1028.189523 199.844039 
L 1027.718066 199.177371 
L 1026.883498 197.406214 
L 1026.232596 195.180036 
L 1025.798595 192.685543 
L 1025.596541 190.131945 
L 1025.622022 187.733408 
L 1025.851549 185.691094 
L 1026.244515 184.176287 
L 1026.746608 183.316034 
L 1027.01896 183.156255 
L 1027.294364 183.182482 
L 1027.564331 183.394161 
L 1027.820488 183.786831 
L 1028.2595 185.078397 
L 1028.553226 186.948857 
L 1028.655677 189.241338 
L 1028.536904 191.763575 
L 1028.185516 194.30403 
L 1027.609626 196.649639 
L 1026.83618 198.603681 
L 1025.908689 200.002272 
L 1025.404432 200.454498 
L 1024.883587 200.728115 
L 1024.354451 200.817354 
L 1023.825492 200.720334 
L 1023.305177 200.439101 
L 1022.80179 199.979582 
L 1022.323257 199.351464 
L 1021.469688 197.645661 
L 1020.794702 195.464755 
L 1020.333554 192.991655 
L 1020.103566 190.433777 
L 1020.075375 189.190302 
L 989.475375 189.190302 
L 989.475375 189.190302 
" style="fill:none;stroke:#000000;stroke-linecap:round;stroke-width:2;"/>
   </g>
   <g id="line2d_63">
    <path clip-path="url(#pb67e36893a)" d="M 989.475375 189.190302 
L 943.575375 189.190302 
L 897.675375 189.190302 
" style="fill:none;stroke:#000000;stroke-linecap:round;stroke-width:2;"/>
   </g>
   <g id="text_1">
    <!-- - -->
    <g transform="translate(104.878438 148.918811)scale(0.14 -0.14)">
     <defs>
      <path d="M 4.890625 31.390625 
L 31.203125 31.390625 
L 31.203125 23.390625 
L 4.890625 23.390625 
z
" id="DejaVuSans-45"/>
     </defs>
     <use xlink:href="#DejaVuSans-45"/>
    </g>
   </g>
   <g id="text_2">
    <!-- O to 230 V AC  -->
    <g transform="translate(7.2 118.130343)scale(0.14 -0.14)">
     <defs>
      <path d="M 39.40625 66.21875 
Q 28.65625 66.21875 22.328125 58.203125 
Q 16.015625 50.203125 16.015625 36.375 
Q 16.015625 22.609375 22.328125 14.59375 
Q 28.65625 6.59375 39.40625 6.59375 
Q 50.140625 6.59375 56.421875 14.59375 
Q 62.703125 22.609375 62.703125 36.375 
Q 62.703125 50.203125 56.421875 58.203125 
Q 50.140625 66.21875 39.40625 66.21875 
z
M 39.40625 74.21875 
Q 54.734375 74.21875 63.90625 63.9375 
Q 73.09375 53.65625 73.09375 36.375 
Q 73.09375 19.140625 63.90625 8.859375 
Q 54.734375 -1.421875 39.40625 -1.421875 
Q 24.03125 -1.421875 14.8125 8.828125 
Q 5.609375 19.09375 5.609375 36.375 
Q 5.609375 53.65625 14.8125 63.9375 
Q 24.03125 74.21875 39.40625 74.21875 
z
" id="DejaVuSans-79"/>
      <path id="DejaVuSans-32"/>
      <path d="M 18.3125 70.21875 
L 18.3125 54.6875 
L 36.8125 54.6875 
L 36.8125 47.703125 
L 18.3125 47.703125 
L 18.3125 18.015625 
Q 18.3125 11.328125 20.140625 9.421875 
Q 21.96875 7.515625 27.59375 7.515625 
L 36.8125 7.515625 
L 36.8125 0 
L 27.59375 0 
Q 17.1875 0 13.234375 3.875 
Q 9.28125 7.765625 9.28125 18.015625 
L 9.28125 47.703125 
L 2.6875 47.703125 
L 2.6875 54.6875 
L 9.28125 54.6875 
L 9.28125 70.21875 
z
" id="DejaVuSans-116"/>
      <path d="M 30.609375 48.390625 
Q 23.390625 48.390625 19.1875 42.75 
Q 14.984375 37.109375 14.984375 27.296875 
Q 14.984375 17.484375 19.15625 11.84375 
Q 23.34375 6.203125 30.609375 6.203125 
Q 37.796875 6.203125 41.984375 11.859375 
Q 46.1875 17.53125 46.1875 27.296875 
Q 46.1875 37.015625 41.984375 42.703125 
Q 37.796875 48.390625 30.609375 48.390625 
z
M 30.609375 56 
Q 42.328125 56 49.015625 48.375 
Q 55.71875 40.765625 55.71875 27.296875 
Q 55.71875 13.875 49.015625 6.21875 
Q 42.328125 -1.421875 30.609375 -1.421875 
Q 18.84375 -1.421875 12.171875 6.21875 
Q 5.515625 13.875 5.515625 27.296875 
Q 5.515625 40.765625 12.171875 48.375 
Q 18.84375 56 30.609375 56 
z
" id="DejaVuSans-111"/>
      <path d="M 19.1875 8.296875 
L 53.609375 8.296875 
L 53.609375 0 
L 7.328125 0 
L 7.328125 8.296875 
Q 12.9375 14.109375 22.625 23.890625 
Q 32.328125 33.6875 34.8125 36.53125 
Q 39.546875 41.84375 41.421875 45.53125 
Q 43.3125 49.21875 43.3125 52.78125 
Q 43.3125 58.59375 39.234375 62.25 
Q 35.15625 65.921875 28.609375 65.921875 
Q 23.96875 65.921875 18.8125 64.3125 
Q 13.671875 62.703125 7.8125 59.421875 
L 7.8125 69.390625 
Q 13.765625 71.78125 18.9375 73 
Q 24.125 74.21875 28.421875 74.21875 
Q 39.75 74.21875 46.484375 68.546875 
Q 53.21875 62.890625 53.21875 53.421875 
Q 53.21875 48.921875 51.53125 44.890625 
Q 49.859375 40.875 45.40625 35.40625 
Q 44.1875 33.984375 37.640625 27.21875 
Q 31.109375 20.453125 19.1875 8.296875 
z
" id="DejaVuSans-50"/>
      <path d="M 40.578125 39.3125 
Q 47.65625 37.796875 51.625 33 
Q 55.609375 28.21875 55.609375 21.1875 
Q 55.609375 10.40625 48.1875 4.484375 
Q 40.765625 -1.421875 27.09375 -1.421875 
Q 22.515625 -1.421875 17.65625 -0.515625 
Q 12.796875 0.390625 7.625 2.203125 
L 7.625 11.71875 
Q 11.71875 9.328125 16.59375 8.109375 
Q 21.484375 6.890625 26.8125 6.890625 
Q 36.078125 6.890625 40.9375 10.546875 
Q 45.796875 14.203125 45.796875 21.1875 
Q 45.796875 27.640625 41.28125 31.265625 
Q 36.765625 34.90625 28.71875 34.90625 
L 20.21875 34.90625 
L 20.21875 43.015625 
L 29.109375 43.015625 
Q 36.375 43.015625 40.234375 45.921875 
Q 44.09375 48.828125 44.09375 54.296875 
Q 44.09375 59.90625 40.109375 62.90625 
Q 36.140625 65.921875 28.71875 65.921875 
Q 24.65625 65.921875 20.015625 65.03125 
Q 15.375 64.15625 9.8125 62.3125 
L 9.8125 71.09375 
Q 15.4375 72.65625 20.34375 73.4375 
Q 25.25 74.21875 29.59375 74.21875 
Q 40.828125 74.21875 47.359375 69.109375 
Q 53.90625 64.015625 53.90625 55.328125 
Q 53.90625 49.265625 50.4375 45.09375 
Q 46.96875 40.921875 40.578125 39.3125 
z
" id="DejaVuSans-51"/>
      <path d="M 31.78125 66.40625 
Q 24.171875 66.40625 20.328125 58.90625 
Q 16.5 51.421875 16.5 36.375 
Q 16.5 21.390625 20.328125 13.890625 
Q 24.171875 6.390625 31.78125 6.390625 
Q 39.453125 6.390625 43.28125 13.890625 
Q 47.125 21.390625 47.125 36.375 
Q 47.125 51.421875 43.28125 58.90625 
Q 39.453125 66.40625 31.78125 66.40625 
z
M 31.78125 74.21875 
Q 44.046875 74.21875 50.515625 64.515625 
Q 56.984375 54.828125 56.984375 36.375 
Q 56.984375 17.96875 50.515625 8.265625 
Q 44.046875 -1.421875 31.78125 -1.421875 
Q 19.53125 -1.421875 13.0625 8.265625 
Q 6.59375 17.96875 6.59375 36.375 
Q 6.59375 54.828125 13.0625 64.515625 
Q 19.53125 74.21875 31.78125 74.21875 
z
" id="DejaVuSans-48"/>
      <path d="M 28.609375 0 
L 0.78125 72.90625 
L 11.078125 72.90625 
L 34.1875 11.53125 
L 57.328125 72.90625 
L 67.578125 72.90625 
L 39.796875 0 
z
" id="DejaVuSans-86"/>
      <path d="M 34.1875 63.1875 
L 20.796875 26.90625 
L 47.609375 26.90625 
z
M 28.609375 72.90625 
L 39.796875 72.90625 
L 67.578125 0 
L 57.328125 0 
L 50.6875 18.703125 
L 17.828125 18.703125 
L 11.1875 0 
L 0.78125 0 
z
" id="DejaVuSans-65"/>
      <path d="M 64.40625 67.28125 
L 64.40625 56.890625 
Q 59.421875 61.53125 53.78125 63.8125 
Q 48.140625 66.109375 41.796875 66.109375 
Q 29.296875 66.109375 22.65625 58.46875 
Q 16.015625 50.828125 16.015625 36.375 
Q 16.015625 21.96875 22.65625 14.328125 
Q 29.296875 6.6875 41.796875 6.6875 
Q 48.140625 6.6875 53.78125 8.984375 
Q 59.421875 11.28125 64.40625 15.921875 
L 64.40625 5.609375 
Q 59.234375 2.09375 53.4375 0.328125 
Q 47.65625 -1.421875 41.21875 -1.421875 
Q 24.65625 -1.421875 15.125 8.703125 
Q 5.609375 18.84375 5.609375 36.375 
Q 5.609375 53.953125 15.125 64.078125 
Q 24.65625 74.21875 41.21875 74.21875 
Q 47.75 74.21875 53.53125 72.484375 
Q 59.328125 70.75 64.40625 67.28125 
z
" id="DejaVuSans-67"/>
     </defs>
     <use xlink:href="#DejaVuSans-79"/>
     <use x="78.710938" xlink:href="#DejaVuSans-32"/>
     <use x="110.498047" xlink:href="#DejaVuSans-116"/>
     <use x="149.707031" xlink:href="#DejaVuSans-111"/>
     <use x="210.888672" xlink:href="#DejaVuSans-32"/>
     <use x="242.675781" xlink:href="#DejaVuSans-50"/>
     <use x="306.298828" xlink:href="#DejaVuSans-51"/>
     <use x="369.921875" xlink:href="#DejaVuSans-48"/>
     <use x="433.544922" xlink:href="#DejaVuSans-32"/>
     <use x="465.332031" xlink:href="#DejaVuSans-86"/>
     <use x="533.740234" xlink:href="#DejaVuSans-32"/>
     <use x="565.527344" xlink:href="#DejaVuSans-65"/>
     <use x="632.185547" xlink:href="#DejaVuSans-67"/>
     <use x="702.009766" xlink:href="#DejaVuSans-32"/>
    </g>
    <!--  60 Hz -->
    <g transform="translate(65.339375 133.80728)scale(0.14 -0.14)">
     <defs>
      <path d="M 33.015625 40.375 
Q 26.375 40.375 22.484375 35.828125 
Q 18.609375 31.296875 18.609375 23.390625 
Q 18.609375 15.53125 22.484375 10.953125 
Q 26.375 6.390625 33.015625 6.390625 
Q 39.65625 6.390625 43.53125 10.953125 
Q 47.40625 15.53125 47.40625 23.390625 
Q 47.40625 31.296875 43.53125 35.828125 
Q 39.65625 40.375 33.015625 40.375 
z
M 52.59375 71.296875 
L 52.59375 62.3125 
Q 48.875 64.0625 45.09375 64.984375 
Q 41.3125 65.921875 37.59375 65.921875 
Q 27.828125 65.921875 22.671875 59.328125 
Q 17.53125 52.734375 16.796875 39.40625 
Q 19.671875 43.65625 24.015625 45.921875 
Q 28.375 48.1875 33.59375 48.1875 
Q 44.578125 48.1875 50.953125 41.515625 
Q 57.328125 34.859375 57.328125 23.390625 
Q 57.328125 12.15625 50.6875 5.359375 
Q 44.046875 -1.421875 33.015625 -1.421875 
Q 20.359375 -1.421875 13.671875 8.265625 
Q 6.984375 17.96875 6.984375 36.375 
Q 6.984375 53.65625 15.1875 63.9375 
Q 23.390625 74.21875 37.203125 74.21875 
Q 40.921875 74.21875 44.703125 73.484375 
Q 48.484375 72.75 52.59375 71.296875 
z
" id="DejaVuSans-54"/>
      <path d="M 9.8125 72.90625 
L 19.671875 72.90625 
L 19.671875 43.015625 
L 55.515625 43.015625 
L 55.515625 72.90625 
L 65.375 72.90625 
L 65.375 0 
L 55.515625 0 
L 55.515625 34.71875 
L 19.671875 34.71875 
L 19.671875 0 
L 9.8125 0 
z
" id="DejaVuSans-72"/>
      <path d="M 5.515625 54.6875 
L 48.1875 54.6875 
L 48.1875 46.484375 
L 14.40625 7.171875 
L 48.1875 7.171875 
L 48.1875 0 
L 4.296875 0 
L 4.296875 8.203125 
L 38.09375 47.515625 
L 5.515625 47.515625 
z
" id="DejaVuSans-122"/>
     </defs>
     <use xlink:href="#DejaVuSans-32"/>
     <use x="31.787109" xlink:href="#DejaVuSans-54"/>
     <use x="95.410156" xlink:href="#DejaVuSans-48"/>
     <use x="159.033203" xlink:href="#DejaVuSans-32"/>
     <use x="190.820312" xlink:href="#DejaVuSans-72"/>
     <use x="266.015625" xlink:href="#DejaVuSans-122"/>
    </g>
   </g>
   <g id="text_3">
    <!-- + -->
    <g transform="translate(98.197813 103.018811)scale(0.14 -0.14)">
     <defs>
      <path d="M 46 62.703125 
L 46 35.5 
L 73.1875 35.5 
L 73.1875 27.203125 
L 46 27.203125 
L 46 0 
L 37.796875 0 
L 37.796875 27.203125 
L 10.59375 27.203125 
L 10.59375 35.5 
L 37.796875 35.5 
L 37.796875 62.703125 
z
" id="DejaVuSans-43"/>
     </defs>
     <use xlink:href="#DejaVuSans-43"/>
    </g>
   </g>
   <g id="text_4">
    <!-- Transformer -->
    <g transform="translate(193.390469 70.234124)scale(0.14 -0.14)">
     <defs>
      <path d="M -0.296875 72.90625 
L 61.375 72.90625 
L 61.375 64.59375 
L 35.5 64.59375 
L 35.5 0 
L 25.59375 0 
L 25.59375 64.59375 
L -0.296875 64.59375 
z
" id="DejaVuSans-84"/>
      <path d="M 41.109375 46.296875 
Q 39.59375 47.171875 37.8125 47.578125 
Q 36.03125 48 33.890625 48 
Q 26.265625 48 22.1875 43.046875 
Q 18.109375 38.09375 18.109375 28.8125 
L 18.109375 0 
L 9.078125 0 
L 9.078125 54.6875 
L 18.109375 54.6875 
L 18.109375 46.1875 
Q 20.953125 51.171875 25.484375 53.578125 
Q 30.03125 56 36.53125 56 
Q 37.453125 56 38.578125 55.875 
Q 39.703125 55.765625 41.0625 55.515625 
z
" id="DejaVuSans-114"/>
      <path d="M 34.28125 27.484375 
Q 23.390625 27.484375 19.1875 25 
Q 14.984375 22.515625 14.984375 16.5 
Q 14.984375 11.71875 18.140625 8.90625 
Q 21.296875 6.109375 26.703125 6.109375 
Q 34.1875 6.109375 38.703125 11.40625 
Q 43.21875 16.703125 43.21875 25.484375 
L 43.21875 27.484375 
z
M 52.203125 31.203125 
L 52.203125 0 
L 43.21875 0 
L 43.21875 8.296875 
Q 40.140625 3.328125 35.546875 0.953125 
Q 30.953125 -1.421875 24.3125 -1.421875 
Q 15.921875 -1.421875 10.953125 3.296875 
Q 6 8.015625 6 15.921875 
Q 6 25.140625 12.171875 29.828125 
Q 18.359375 34.515625 30.609375 34.515625 
L 43.21875 34.515625 
L 43.21875 35.40625 
Q 43.21875 41.609375 39.140625 45 
Q 35.0625 48.390625 27.6875 48.390625 
Q 23 48.390625 18.546875 47.265625 
Q 14.109375 46.140625 10.015625 43.890625 
L 10.015625 52.203125 
Q 14.9375 54.109375 19.578125 55.046875 
Q 24.21875 56 28.609375 56 
Q 40.484375 56 46.34375 49.84375 
Q 52.203125 43.703125 52.203125 31.203125 
z
" id="DejaVuSans-97"/>
      <path d="M 54.890625 33.015625 
L 54.890625 0 
L 45.90625 0 
L 45.90625 32.71875 
Q 45.90625 40.484375 42.875 44.328125 
Q 39.84375 48.1875 33.796875 48.1875 
Q 26.515625 48.1875 22.3125 43.546875 
Q 18.109375 38.921875 18.109375 30.90625 
L 18.109375 0 
L 9.078125 0 
L 9.078125 54.6875 
L 18.109375 54.6875 
L 18.109375 46.1875 
Q 21.34375 51.125 25.703125 53.5625 
Q 30.078125 56 35.796875 56 
Q 45.21875 56 50.046875 50.171875 
Q 54.890625 44.34375 54.890625 33.015625 
z
" id="DejaVuSans-110"/>
      <path d="M 44.28125 53.078125 
L 44.28125 44.578125 
Q 40.484375 46.53125 36.375 47.5 
Q 32.28125 48.484375 27.875 48.484375 
Q 21.1875 48.484375 17.84375 46.4375 
Q 14.5 44.390625 14.5 40.28125 
Q 14.5 37.15625 16.890625 35.375 
Q 19.28125 33.59375 26.515625 31.984375 
L 29.59375 31.296875 
Q 39.15625 29.25 43.1875 25.515625 
Q 47.21875 21.78125 47.21875 15.09375 
Q 47.21875 7.46875 41.1875 3.015625 
Q 35.15625 -1.421875 24.609375 -1.421875 
Q 20.21875 -1.421875 15.453125 -0.5625 
Q 10.6875 0.296875 5.421875 2 
L 5.421875 11.28125 
Q 10.40625 8.6875 15.234375 7.390625 
Q 20.0625 6.109375 24.8125 6.109375 
Q 31.15625 6.109375 34.5625 8.28125 
Q 37.984375 10.453125 37.984375 14.40625 
Q 37.984375 18.0625 35.515625 20.015625 
Q 33.0625 21.96875 24.703125 23.78125 
L 21.578125 24.515625 
Q 13.234375 26.265625 9.515625 29.90625 
Q 5.8125 33.546875 5.8125 39.890625 
Q 5.8125 47.609375 11.28125 51.796875 
Q 16.75 56 26.8125 56 
Q 31.78125 56 36.171875 55.265625 
Q 40.578125 54.546875 44.28125 53.078125 
z
" id="DejaVuSans-115"/>
      <path d="M 37.109375 75.984375 
L 37.109375 68.5 
L 28.515625 68.5 
Q 23.6875 68.5 21.796875 66.546875 
Q 19.921875 64.59375 19.921875 59.515625 
L 19.921875 54.6875 
L 34.71875 54.6875 
L 34.71875 47.703125 
L 19.921875 47.703125 
L 19.921875 0 
L 10.890625 0 
L 10.890625 47.703125 
L 2.296875 47.703125 
L 2.296875 54.6875 
L 10.890625 54.6875 
L 10.890625 58.5 
Q 10.890625 67.625 15.140625 71.796875 
Q 19.390625 75.984375 28.609375 75.984375 
z
" id="DejaVuSans-102"/>
      <path d="M 52 44.1875 
Q 55.375 50.25 60.0625 53.125 
Q 64.75 56 71.09375 56 
Q 79.640625 56 84.28125 50.015625 
Q 88.921875 44.046875 88.921875 33.015625 
L 88.921875 0 
L 79.890625 0 
L 79.890625 32.71875 
Q 79.890625 40.578125 77.09375 44.375 
Q 74.3125 48.1875 68.609375 48.1875 
Q 61.625 48.1875 57.5625 43.546875 
Q 53.515625 38.921875 53.515625 30.90625 
L 53.515625 0 
L 44.484375 0 
L 44.484375 32.71875 
Q 44.484375 40.625 41.703125 44.40625 
Q 38.921875 48.1875 33.109375 48.1875 
Q 26.21875 48.1875 22.15625 43.53125 
Q 18.109375 38.875 18.109375 30.90625 
L 18.109375 0 
L 9.078125 0 
L 9.078125 54.6875 
L 18.109375 54.6875 
L 18.109375 46.1875 
Q 21.1875 51.21875 25.484375 53.609375 
Q 29.78125 56 35.6875 56 
Q 41.65625 56 45.828125 52.96875 
Q 50 49.953125 52 44.1875 
z
" id="DejaVuSans-109"/>
      <path d="M 56.203125 29.59375 
L 56.203125 25.203125 
L 14.890625 25.203125 
Q 15.484375 15.921875 20.484375 11.0625 
Q 25.484375 6.203125 34.421875 6.203125 
Q 39.59375 6.203125 44.453125 7.46875 
Q 49.3125 8.734375 54.109375 11.28125 
L 54.109375 2.78125 
Q 49.265625 0.734375 44.1875 -0.34375 
Q 39.109375 -1.421875 33.890625 -1.421875 
Q 20.796875 -1.421875 13.15625 6.1875 
Q 5.515625 13.8125 5.515625 26.8125 
Q 5.515625 40.234375 12.765625 48.109375 
Q 20.015625 56 32.328125 56 
Q 43.359375 56 49.78125 48.890625 
Q 56.203125 41.796875 56.203125 29.59375 
z
M 47.21875 32.234375 
Q 47.125 39.59375 43.09375 43.984375 
Q 39.0625 48.390625 32.421875 48.390625 
Q 24.90625 48.390625 20.390625 44.140625 
Q 15.875 39.890625 15.1875 32.171875 
z
" id="DejaVuSans-101"/>
     </defs>
     <use xlink:href="#DejaVuSans-84"/>
     <use x="46.333984" xlink:href="#DejaVuSans-114"/>
     <use x="87.447266" xlink:href="#DejaVuSans-97"/>
     <use x="148.726562" xlink:href="#DejaVuSans-110"/>
     <use x="212.105469" xlink:href="#DejaVuSans-115"/>
     <use x="264.205078" xlink:href="#DejaVuSans-102"/>
     <use x="299.410156" xlink:href="#DejaVuSans-111"/>
     <use x="360.591797" xlink:href="#DejaVuSans-114"/>
     <use x="399.955078" xlink:href="#DejaVuSans-109"/>
     <use x="497.367188" xlink:href="#DejaVuSans-101"/>
     <use x="558.890625" xlink:href="#DejaVuSans-114"/>
    </g>
   </g>
   <g id="text_5">
    <!-- D1 -->
    <g transform="translate(312.091875 125.968811)scale(0.14 -0.14)">
     <defs>
      <path d="M 19.671875 64.796875 
L 19.671875 8.109375 
L 31.59375 8.109375 
Q 46.6875 8.109375 53.6875 14.9375 
Q 60.6875 21.78125 60.6875 36.53125 
Q 60.6875 51.171875 53.6875 57.984375 
Q 46.6875 64.796875 31.59375 64.796875 
z
M 9.8125 72.90625 
L 30.078125 72.90625 
Q 51.265625 72.90625 61.171875 64.09375 
Q 71.09375 55.28125 71.09375 36.53125 
Q 71.09375 17.671875 61.125 8.828125 
Q 51.171875 0 30.078125 0 
L 9.8125 0 
z
" id="DejaVuSans-68"/>
      <path d="M 12.40625 8.296875 
L 28.515625 8.296875 
L 28.515625 63.921875 
L 10.984375 60.40625 
L 10.984375 69.390625 
L 28.421875 72.90625 
L 38.28125 72.90625 
L 38.28125 8.296875 
L 54.390625 8.296875 
L 54.390625 0 
L 12.40625 0 
z
" id="DejaVuSans-49"/>
     </defs>
     <use xlink:href="#DejaVuSans-68"/>
     <use x="77.001953" xlink:href="#DejaVuSans-49"/>
    </g>
   </g>
   <g id="text_6">
    <!-- Full  -->
    <g transform="translate(457.239375 75.741802)scale(0.14 -0.14)">
     <defs>
      <path d="M 9.8125 72.90625 
L 51.703125 72.90625 
L 51.703125 64.59375 
L 19.671875 64.59375 
L 19.671875 43.109375 
L 48.578125 43.109375 
L 48.578125 34.8125 
L 19.671875 34.8125 
L 19.671875 0 
L 9.8125 0 
z
" id="DejaVuSans-70"/>
      <path d="M 8.5 21.578125 
L 8.5 54.6875 
L 17.484375 54.6875 
L 17.484375 21.921875 
Q 17.484375 14.15625 20.5 10.265625 
Q 23.53125 6.390625 29.59375 6.390625 
Q 36.859375 6.390625 41.078125 11.03125 
Q 45.3125 15.671875 45.3125 23.6875 
L 45.3125 54.6875 
L 54.296875 54.6875 
L 54.296875 0 
L 45.3125 0 
L 45.3125 8.40625 
Q 42.046875 3.421875 37.71875 1 
Q 33.40625 -1.421875 27.6875 -1.421875 
Q 18.265625 -1.421875 13.375 4.4375 
Q 8.5 10.296875 8.5 21.578125 
z
M 31.109375 56 
z
" id="DejaVuSans-117"/>
      <path d="M 9.421875 75.984375 
L 18.40625 75.984375 
L 18.40625 0 
L 9.421875 0 
z
" id="DejaVuSans-108"/>
     </defs>
     <use xlink:href="#DejaVuSans-70"/>
     <use x="52.019531" xlink:href="#DejaVuSans-117"/>
     <use x="115.398438" xlink:href="#DejaVuSans-108"/>
     <use x="143.181641" xlink:href="#DejaVuSans-108"/>
     <use x="170.964844" xlink:href="#DejaVuSans-32"/>
    </g>
    <!--  wave -->
    <g transform="translate(457.239375 91.418739)scale(0.14 -0.14)">
     <defs>
      <path d="M 4.203125 54.6875 
L 13.1875 54.6875 
L 24.421875 12.015625 
L 35.59375 54.6875 
L 46.1875 54.6875 
L 57.421875 12.015625 
L 68.609375 54.6875 
L 77.59375 54.6875 
L 63.28125 0 
L 52.6875 0 
L 40.921875 44.828125 
L 29.109375 0 
L 18.5 0 
z
" id="DejaVuSans-119"/>
      <path d="M 2.984375 54.6875 
L 12.5 54.6875 
L 29.59375 8.796875 
L 46.6875 54.6875 
L 56.203125 54.6875 
L 35.6875 0 
L 23.484375 0 
z
" id="DejaVuSans-118"/>
     </defs>
     <use xlink:href="#DejaVuSans-32"/>
     <use x="31.787109" xlink:href="#DejaVuSans-119"/>
     <use x="113.574219" xlink:href="#DejaVuSans-97"/>
     <use x="174.853516" xlink:href="#DejaVuSans-118"/>
     <use x="234.033203" xlink:href="#DejaVuSans-101"/>
    </g>
   </g>
   <g id="text_7">
    <!-- D2 -->
    <g transform="translate(312.091875 233.068811)scale(0.14 -0.14)">
     <use xlink:href="#DejaVuSans-68"/>
     <use x="77.001953" xlink:href="#DejaVuSans-50"/>
    </g>
   </g>
   <g id="text_8">
    <!-- D3 -->
    <g transform="translate(403.891875 125.968811)scale(0.14 -0.14)">
     <use xlink:href="#DejaVuSans-68"/>
     <use x="77.001953" xlink:href="#DejaVuSans-51"/>
    </g>
   </g>
   <g id="text_9">
    <!-- D4 -->
    <g transform="translate(403.891875 233.068811)scale(0.14 -0.14)">
     <defs>
      <path d="M 37.796875 64.3125 
L 12.890625 25.390625 
L 37.796875 25.390625 
z
M 35.203125 72.90625 
L 47.609375 72.90625 
L 47.609375 25.390625 
L 58.015625 25.390625 
L 58.015625 17.1875 
L 47.609375 17.1875 
L 47.609375 0 
L 37.796875 0 
L 37.796875 17.1875 
L 4.890625 17.1875 
L 4.890625 26.703125 
z
" id="DejaVuSans-52"/>
     </defs>
     <use xlink:href="#DejaVuSans-68"/>
     <use x="77.001953" xlink:href="#DejaVuSans-52"/>
    </g>
   </g>
   <g id="text_10">
    <!-- R1 -->
    <g transform="translate(519.694062 147.153427)scale(0.14 -0.14)">
     <defs>
      <path d="M 44.390625 34.1875 
Q 47.5625 33.109375 50.5625 29.59375 
Q 53.5625 26.078125 56.59375 19.921875 
L 66.609375 0 
L 56 0 
L 46.6875 18.703125 
Q 43.0625 26.03125 39.671875 28.421875 
Q 36.28125 30.8125 30.421875 30.8125 
L 19.671875 30.8125 
L 19.671875 0 
L 9.8125 0 
L 9.8125 72.90625 
L 32.078125 72.90625 
Q 44.578125 72.90625 50.734375 67.671875 
Q 56.890625 62.453125 56.890625 51.90625 
Q 56.890625 45.015625 53.6875 40.46875 
Q 50.484375 35.9375 44.390625 34.1875 
z
M 19.671875 64.796875 
L 19.671875 38.921875 
L 32.078125 38.921875 
Q 39.203125 38.921875 42.84375 42.21875 
Q 46.484375 45.515625 46.484375 51.90625 
Q 46.484375 58.296875 42.84375 61.546875 
Q 39.203125 64.796875 32.078125 64.796875 
z
" id="DejaVuSans-82"/>
     </defs>
     <use xlink:href="#DejaVuSans-82"/>
     <use x="69.482422" xlink:href="#DejaVuSans-49"/>
    </g>
   </g>
   <g id="text_11">
    <!-- T1 -->
    <g transform="translate(653.683156 80.759739)scale(0.14 -0.14)">
     <use xlink:href="#DejaVuSans-84"/>
     <use x="61.083984" xlink:href="#DejaVuSans-49"/>
    </g>
   </g>
   <g id="text_12">
    <!-- O1 -->
    <g transform="translate(583.343313 206.168739)scale(0.14 -0.14)">
     <use xlink:href="#DejaVuSans-79"/>
     <use x="78.710938" xlink:href="#DejaVuSans-49"/>
    </g>
   </g>
   <g id="text_13">
    <!-- Signal  -->
    <g transform="translate(504.54175 319.717489)scale(0.14 -0.14)">
     <defs>
      <path d="M 53.515625 70.515625 
L 53.515625 60.890625 
Q 47.90625 63.578125 42.921875 64.890625 
Q 37.9375 66.21875 33.296875 66.21875 
Q 25.25 66.21875 20.875 63.09375 
Q 16.5 59.96875 16.5 54.203125 
Q 16.5 49.359375 19.40625 46.890625 
Q 22.3125 44.4375 30.421875 42.921875 
L 36.375 41.703125 
Q 47.40625 39.59375 52.65625 34.296875 
Q 57.90625 29 57.90625 20.125 
Q 57.90625 9.515625 50.796875 4.046875 
Q 43.703125 -1.421875 29.984375 -1.421875 
Q 24.8125 -1.421875 18.96875 -0.25 
Q 13.140625 0.921875 6.890625 3.21875 
L 6.890625 13.375 
Q 12.890625 10.015625 18.65625 8.296875 
Q 24.421875 6.59375 29.984375 6.59375 
Q 38.421875 6.59375 43.015625 9.90625 
Q 47.609375 13.234375 47.609375 19.390625 
Q 47.609375 24.75 44.3125 27.78125 
Q 41.015625 30.8125 33.5 32.328125 
L 27.484375 33.5 
Q 16.453125 35.6875 11.515625 40.375 
Q 6.59375 45.0625 6.59375 53.421875 
Q 6.59375 63.09375 13.40625 68.65625 
Q 20.21875 74.21875 32.171875 74.21875 
Q 37.3125 74.21875 42.625 73.28125 
Q 47.953125 72.359375 53.515625 70.515625 
z
" id="DejaVuSans-83"/>
      <path d="M 9.421875 54.6875 
L 18.40625 54.6875 
L 18.40625 0 
L 9.421875 0 
z
M 9.421875 75.984375 
L 18.40625 75.984375 
L 18.40625 64.59375 
L 9.421875 64.59375 
z
" id="DejaVuSans-105"/>
      <path d="M 45.40625 27.984375 
Q 45.40625 37.75 41.375 43.109375 
Q 37.359375 48.484375 30.078125 48.484375 
Q 22.859375 48.484375 18.828125 43.109375 
Q 14.796875 37.75 14.796875 27.984375 
Q 14.796875 18.265625 18.828125 12.890625 
Q 22.859375 7.515625 30.078125 7.515625 
Q 37.359375 7.515625 41.375 12.890625 
Q 45.40625 18.265625 45.40625 27.984375 
z
M 54.390625 6.78125 
Q 54.390625 -7.171875 48.1875 -13.984375 
Q 42 -20.796875 29.203125 -20.796875 
Q 24.46875 -20.796875 20.265625 -20.09375 
Q 16.0625 -19.390625 12.109375 -17.921875 
L 12.109375 -9.1875 
Q 16.0625 -11.328125 19.921875 -12.34375 
Q 23.78125 -13.375 27.78125 -13.375 
Q 36.625 -13.375 41.015625 -8.765625 
Q 45.40625 -4.15625 45.40625 5.171875 
L 45.40625 9.625 
Q 42.625 4.78125 38.28125 2.390625 
Q 33.9375 0 27.875 0 
Q 17.828125 0 11.671875 7.65625 
Q 5.515625 15.328125 5.515625 27.984375 
Q 5.515625 40.671875 11.671875 48.328125 
Q 17.828125 56 27.875 56 
Q 33.9375 56 38.28125 53.609375 
Q 42.625 51.21875 45.40625 46.390625 
L 45.40625 54.6875 
L 54.390625 54.6875 
z
" id="DejaVuSans-103"/>
     </defs>
     <use xlink:href="#DejaVuSans-83"/>
     <use x="63.476562" xlink:href="#DejaVuSans-105"/>
     <use x="91.259766" xlink:href="#DejaVuSans-103"/>
     <use x="154.736328" xlink:href="#DejaVuSans-110"/>
     <use x="218.115234" xlink:href="#DejaVuSans-97"/>
     <use x="279.394531" xlink:href="#DejaVuSans-108"/>
     <use x="307.177734" xlink:href="#DejaVuSans-32"/>
    </g>
    <!--  generator  -->
    <g transform="translate(473.964875 335.394427)scale(0.14 -0.14)">
     <use xlink:href="#DejaVuSans-32"/>
     <use x="31.787109" xlink:href="#DejaVuSans-103"/>
     <use x="95.263672" xlink:href="#DejaVuSans-101"/>
     <use x="156.787109" xlink:href="#DejaVuSans-110"/>
     <use x="220.166016" xlink:href="#DejaVuSans-101"/>
     <use x="281.689453" xlink:href="#DejaVuSans-114"/>
     <use x="322.802734" xlink:href="#DejaVuSans-97"/>
     <use x="384.082031" xlink:href="#DejaVuSans-116"/>
     <use x="423.291016" xlink:href="#DejaVuSans-111"/>
     <use x="484.472656" xlink:href="#DejaVuSans-114"/>
     <use x="525.585938" xlink:href="#DejaVuSans-32"/>
    </g>
    <!--  HF -->
    <g transform="translate(528.967375 351.071364)scale(0.14 -0.14)">
     <use xlink:href="#DejaVuSans-32"/>
     <use x="31.787109" xlink:href="#DejaVuSans-72"/>
     <use x="106.982422" xlink:href="#DejaVuSans-70"/>
    </g>
   </g>
   <g id="text_14">
    <!-- Half  -->
    <g transform="translate(713.187875 60.064864)scale(0.14 -0.14)">
     <use xlink:href="#DejaVuSans-72"/>
     <use x="75.195312" xlink:href="#DejaVuSans-97"/>
     <use x="136.474609" xlink:href="#DejaVuSans-108"/>
     <use x="164.257812" xlink:href="#DejaVuSans-102"/>
     <use x="199.462891" xlink:href="#DejaVuSans-32"/>
    </g>
    <!--  full  -->
    <g transform="translate(714.136156 75.741802)scale(0.14 -0.14)">
     <use xlink:href="#DejaVuSans-32"/>
     <use x="31.787109" xlink:href="#DejaVuSans-102"/>
     <use x="66.992188" xlink:href="#DejaVuSans-117"/>
     <use x="130.371094" xlink:href="#DejaVuSans-108"/>
     <use x="158.154297" xlink:href="#DejaVuSans-108"/>
     <use x="185.9375" xlink:href="#DejaVuSans-32"/>
    </g>
    <!--  wave -->
    <g transform="translate(708.686 91.418739)scale(0.14 -0.14)">
     <use xlink:href="#DejaVuSans-32"/>
     <use x="31.787109" xlink:href="#DejaVuSans-119"/>
     <use x="113.574219" xlink:href="#DejaVuSans-97"/>
     <use x="174.853516" xlink:href="#DejaVuSans-118"/>
     <use x="234.033203" xlink:href="#DejaVuSans-101"/>
    </g>
   </g>
   <g id="text_15">
    <!-- Main  -->
    <g transform="translate(771.640375 45.141802)scale(0.14 -0.14)">
     <defs>
      <path d="M 9.8125 72.90625 
L 24.515625 72.90625 
L 43.109375 23.296875 
L 61.8125 72.90625 
L 76.515625 72.90625 
L 76.515625 0 
L 66.890625 0 
L 66.890625 64.015625 
L 48.09375 14.015625 
L 38.1875 14.015625 
L 19.390625 64.015625 
L 19.390625 0 
L 9.8125 0 
z
" id="DejaVuSans-77"/>
     </defs>
     <use xlink:href="#DejaVuSans-77"/>
     <use x="86.279297" xlink:href="#DejaVuSans-97"/>
     <use x="147.558594" xlink:href="#DejaVuSans-105"/>
     <use x="175.341797" xlink:href="#DejaVuSans-110"/>
     <use x="238.720703" xlink:href="#DejaVuSans-32"/>
    </g>
    <!--  transformer -->
    <g transform="translate(746.850531 60.818739)scale(0.14 -0.14)">
     <use xlink:href="#DejaVuSans-32"/>
     <use x="31.787109" xlink:href="#DejaVuSans-116"/>
     <use x="70.996094" xlink:href="#DejaVuSans-114"/>
     <use x="112.109375" xlink:href="#DejaVuSans-97"/>
     <use x="173.388672" xlink:href="#DejaVuSans-110"/>
     <use x="236.767578" xlink:href="#DejaVuSans-115"/>
     <use x="288.867188" xlink:href="#DejaVuSans-102"/>
     <use x="324.072266" xlink:href="#DejaVuSans-111"/>
     <use x="385.253906" xlink:href="#DejaVuSans-114"/>
     <use x="424.617188" xlink:href="#DejaVuSans-109"/>
     <use x="522.029297" xlink:href="#DejaVuSans-101"/>
     <use x="583.552734" xlink:href="#DejaVuSans-114"/>
    </g>
   </g>
   <g id="text_16">
    <!-- Blocking  -->
    <g transform="translate(911.593031 37.491802)scale(0.14 -0.14)">
     <defs>
      <path d="M 19.671875 34.8125 
L 19.671875 8.109375 
L 35.5 8.109375 
Q 43.453125 8.109375 47.28125 11.40625 
Q 51.125 14.703125 51.125 21.484375 
Q 51.125 28.328125 47.28125 31.5625 
Q 43.453125 34.8125 35.5 34.8125 
z
M 19.671875 64.796875 
L 19.671875 42.828125 
L 34.28125 42.828125 
Q 41.5 42.828125 45.03125 45.53125 
Q 48.578125 48.25 48.578125 53.8125 
Q 48.578125 59.328125 45.03125 62.0625 
Q 41.5 64.796875 34.28125 64.796875 
z
M 9.8125 72.90625 
L 35.015625 72.90625 
Q 46.296875 72.90625 52.390625 68.21875 
Q 58.5 63.53125 58.5 54.890625 
Q 58.5 48.1875 55.375 44.234375 
Q 52.25 40.28125 46.1875 39.3125 
Q 53.46875 37.75 57.5 32.78125 
Q 61.53125 27.828125 61.53125 20.40625 
Q 61.53125 10.640625 54.890625 5.3125 
Q 48.25 0 35.984375 0 
L 9.8125 0 
z
" id="DejaVuSans-66"/>
      <path d="M 48.78125 52.59375 
L 48.78125 44.1875 
Q 44.96875 46.296875 41.140625 47.34375 
Q 37.3125 48.390625 33.40625 48.390625 
Q 24.65625 48.390625 19.8125 42.84375 
Q 14.984375 37.3125 14.984375 27.296875 
Q 14.984375 17.28125 19.8125 11.734375 
Q 24.65625 6.203125 33.40625 6.203125 
Q 37.3125 6.203125 41.140625 7.25 
Q 44.96875 8.296875 48.78125 10.40625 
L 48.78125 2.09375 
Q 45.015625 0.34375 40.984375 -0.53125 
Q 36.96875 -1.421875 32.421875 -1.421875 
Q 20.0625 -1.421875 12.78125 6.34375 
Q 5.515625 14.109375 5.515625 27.296875 
Q 5.515625 40.671875 12.859375 48.328125 
Q 20.21875 56 33.015625 56 
Q 37.15625 56 41.109375 55.140625 
Q 45.0625 54.296875 48.78125 52.59375 
z
" id="DejaVuSans-99"/>
      <path d="M 9.078125 75.984375 
L 18.109375 75.984375 
L 18.109375 31.109375 
L 44.921875 54.6875 
L 56.390625 54.6875 
L 27.390625 29.109375 
L 57.625 0 
L 45.90625 0 
L 18.109375 26.703125 
L 18.109375 0 
L 9.078125 0 
z
" id="DejaVuSans-107"/>
     </defs>
     <use xlink:href="#DejaVuSans-66"/>
     <use x="68.603516" xlink:href="#DejaVuSans-108"/>
     <use x="96.386719" xlink:href="#DejaVuSans-111"/>
     <use x="157.568359" xlink:href="#DejaVuSans-99"/>
     <use x="212.548828" xlink:href="#DejaVuSans-107"/>
     <use x="270.458984" xlink:href="#DejaVuSans-105"/>
     <use x="298.242188" xlink:href="#DejaVuSans-110"/>
     <use x="361.621094" xlink:href="#DejaVuSans-103"/>
     <use x="425.097656" xlink:href="#DejaVuSans-32"/>
    </g>
    <!--  diode -->
    <g transform="translate(921.927875 53.168739)scale(0.14 -0.14)">
     <defs>
      <path d="M 45.40625 46.390625 
L 45.40625 75.984375 
L 54.390625 75.984375 
L 54.390625 0 
L 45.40625 0 
L 45.40625 8.203125 
Q 42.578125 3.328125 38.25 0.953125 
Q 33.9375 -1.421875 27.875 -1.421875 
Q 17.96875 -1.421875 11.734375 6.484375 
Q 5.515625 14.40625 5.515625 27.296875 
Q 5.515625 40.1875 11.734375 48.09375 
Q 17.96875 56 27.875 56 
Q 33.9375 56 38.25 53.625 
Q 42.578125 51.265625 45.40625 46.390625 
z
M 14.796875 27.296875 
Q 14.796875 17.390625 18.875 11.75 
Q 22.953125 6.109375 30.078125 6.109375 
Q 37.203125 6.109375 41.296875 11.75 
Q 45.40625 17.390625 45.40625 27.296875 
Q 45.40625 37.203125 41.296875 42.84375 
Q 37.203125 48.484375 30.078125 48.484375 
Q 22.953125 48.484375 18.875 42.84375 
Q 14.796875 37.203125 14.796875 27.296875 
z
" id="DejaVuSans-100"/>
     </defs>
     <use xlink:href="#DejaVuSans-32"/>
     <use x="31.787109" xlink:href="#DejaVuSans-100"/>
     <use x="95.263672" xlink:href="#DejaVuSans-105"/>
     <use x="123.046875" xlink:href="#DejaVuSans-111"/>
     <use x="184.228516" xlink:href="#DejaVuSans-100"/>
     <use x="247.705078" xlink:href="#DejaVuSans-101"/>
    </g>
   </g>
   <g id="text_17">
    <!-- Resonant  -->
    <g transform="translate(1000.4585 17.837812)scale(0.14 -0.14)">
     <use xlink:href="#DejaVuSans-82"/>
     <use x="64.982422" xlink:href="#DejaVuSans-101"/>
     <use x="126.505859" xlink:href="#DejaVuSans-115"/>
     <use x="178.605469" xlink:href="#DejaVuSans-111"/>
     <use x="239.787109" xlink:href="#DejaVuSans-110"/>
     <use x="303.166016" xlink:href="#DejaVuSans-97"/>
     <use x="364.445312" xlink:href="#DejaVuSans-110"/>
     <use x="427.824219" xlink:href="#DejaVuSans-116"/>
     <use x="467.033203" xlink:href="#DejaVuSans-32"/>
    </g>
    <!--  charging  -->
    <g transform="translate(1000.32725 33.51475)scale(0.14 -0.14)">
     <defs>
      <path d="M 54.890625 33.015625 
L 54.890625 0 
L 45.90625 0 
L 45.90625 32.71875 
Q 45.90625 40.484375 42.875 44.328125 
Q 39.84375 48.1875 33.796875 48.1875 
Q 26.515625 48.1875 22.3125 43.546875 
Q 18.109375 38.921875 18.109375 30.90625 
L 18.109375 0 
L 9.078125 0 
L 9.078125 75.984375 
L 18.109375 75.984375 
L 18.109375 46.1875 
Q 21.34375 51.125 25.703125 53.5625 
Q 30.078125 56 35.796875 56 
Q 45.21875 56 50.046875 50.171875 
Q 54.890625 44.34375 54.890625 33.015625 
z
" id="DejaVuSans-104"/>
     </defs>
     <use xlink:href="#DejaVuSans-32"/>
     <use x="31.787109" xlink:href="#DejaVuSans-99"/>
     <use x="86.767578" xlink:href="#DejaVuSans-104"/>
     <use x="150.146484" xlink:href="#DejaVuSans-97"/>
     <use x="211.425781" xlink:href="#DejaVuSans-114"/>
     <use x="250.789062" xlink:href="#DejaVuSans-103"/>
     <use x="314.265625" xlink:href="#DejaVuSans-105"/>
     <use x="342.048828" xlink:href="#DejaVuSans-110"/>
     <use x="405.427734" xlink:href="#DejaVuSans-103"/>
     <use x="468.904297" xlink:href="#DejaVuSans-32"/>
    </g>
    <!--  choke -->
    <g transform="translate(1012.475531 49.191687)scale(0.14 -0.14)">
     <use xlink:href="#DejaVuSans-32"/>
     <use x="31.787109" xlink:href="#DejaVuSans-99"/>
     <use x="86.767578" xlink:href="#DejaVuSans-104"/>
     <use x="150.146484" xlink:href="#DejaVuSans-111"/>
     <use x="211.328125" xlink:href="#DejaVuSans-107"/>
     <use x="265.613281" xlink:href="#DejaVuSans-101"/>
    </g>
   </g>
   <g id="text_18">
    <!-- Gas  -->
    <g transform="translate(1091.985375 100.876489)scale(0.14 -0.14)">
     <defs>
      <path d="M 59.515625 10.40625 
L 59.515625 29.984375 
L 43.40625 29.984375 
L 43.40625 38.09375 
L 69.28125 38.09375 
L 69.28125 6.78125 
Q 63.578125 2.734375 56.6875 0.65625 
Q 49.8125 -1.421875 42 -1.421875 
Q 24.90625 -1.421875 15.25 8.5625 
Q 5.609375 18.5625 5.609375 36.375 
Q 5.609375 54.25 15.25 64.234375 
Q 24.90625 74.21875 42 74.21875 
Q 49.125 74.21875 55.546875 72.453125 
Q 61.96875 70.703125 67.390625 67.28125 
L 67.390625 56.78125 
Q 61.921875 61.421875 55.765625 63.765625 
Q 49.609375 66.109375 42.828125 66.109375 
Q 29.4375 66.109375 22.71875 58.640625 
Q 16.015625 51.171875 16.015625 36.375 
Q 16.015625 21.625 22.71875 14.15625 
Q 29.4375 6.6875 42.828125 6.6875 
Q 48.046875 6.6875 52.140625 7.59375 
Q 56.25 8.5 59.515625 10.40625 
z
" id="DejaVuSans-71"/>
     </defs>
     <use xlink:href="#DejaVuSans-71"/>
     <use x="77.490234" xlink:href="#DejaVuSans-97"/>
     <use x="138.769531" xlink:href="#DejaVuSans-115"/>
     <use x="190.869141" xlink:href="#DejaVuSans-32"/>
    </g>
    <!--  resonant  -->
    <g transform="translate(1091.985375 116.553427)scale(0.14 -0.14)">
     <use xlink:href="#DejaVuSans-32"/>
     <use x="31.787109" xlink:href="#DejaVuSans-114"/>
     <use x="70.650391" xlink:href="#DejaVuSans-101"/>
     <use x="132.173828" xlink:href="#DejaVuSans-115"/>
     <use x="184.273438" xlink:href="#DejaVuSans-111"/>
     <use x="245.455078" xlink:href="#DejaVuSans-110"/>
     <use x="308.833984" xlink:href="#DejaVuSans-97"/>
     <use x="370.113281" xlink:href="#DejaVuSans-110"/>
     <use x="433.492188" xlink:href="#DejaVuSans-116"/>
     <use x="472.701172" xlink:href="#DejaVuSans-32"/>
    </g>
    <!--  cavity -->
    <g transform="translate(1091.985375 132.230364)scale(0.14 -0.14)">
     <defs>
      <path d="M 32.171875 -5.078125 
Q 28.375 -14.84375 24.75 -17.8125 
Q 21.140625 -20.796875 15.09375 -20.796875 
L 7.90625 -20.796875 
L 7.90625 -13.28125 
L 13.1875 -13.28125 
Q 16.890625 -13.28125 18.9375 -11.515625 
Q 21 -9.765625 23.484375 -3.21875 
L 25.09375 0.875 
L 2.984375 54.6875 
L 12.5 54.6875 
L 29.59375 11.921875 
L 46.6875 54.6875 
L 56.203125 54.6875 
z
" id="DejaVuSans-121"/>
     </defs>
     <use xlink:href="#DejaVuSans-32"/>
     <use x="31.787109" xlink:href="#DejaVuSans-99"/>
     <use x="86.767578" xlink:href="#DejaVuSans-97"/>
     <use x="148.046875" xlink:href="#DejaVuSans-118"/>
     <use x="207.226562" xlink:href="#DejaVuSans-105"/>
     <use x="235.009766" xlink:href="#DejaVuSans-116"/>
     <use x="274.21875" xlink:href="#DejaVuSans-121"/>
    </g>
   </g>
   <g id="text_19">
    <!-- Variable  -->
    <g transform="translate(1004.80725 214.515166)scale(0.14 -0.14)">
     <defs>
      <path d="M 48.6875 27.296875 
Q 48.6875 37.203125 44.609375 42.84375 
Q 40.53125 48.484375 33.40625 48.484375 
Q 26.265625 48.484375 22.1875 42.84375 
Q 18.109375 37.203125 18.109375 27.296875 
Q 18.109375 17.390625 22.1875 11.75 
Q 26.265625 6.109375 33.40625 6.109375 
Q 40.53125 6.109375 44.609375 11.75 
Q 48.6875 17.390625 48.6875 27.296875 
z
M 18.109375 46.390625 
Q 20.953125 51.265625 25.265625 53.625 
Q 29.59375 56 35.59375 56 
Q 45.5625 56 51.78125 48.09375 
Q 58.015625 40.1875 58.015625 27.296875 
Q 58.015625 14.40625 51.78125 6.484375 
Q 45.5625 -1.421875 35.59375 -1.421875 
Q 29.59375 -1.421875 25.265625 0.953125 
Q 20.953125 3.328125 18.109375 8.203125 
L 18.109375 0 
L 9.078125 0 
L 9.078125 75.984375 
L 18.109375 75.984375 
z
" id="DejaVuSans-98"/>
     </defs>
     <use xlink:href="#DejaVuSans-86"/>
     <use x="60.658203" xlink:href="#DejaVuSans-97"/>
     <use x="121.9375" xlink:href="#DejaVuSans-114"/>
     <use x="163.050781" xlink:href="#DejaVuSans-105"/>
     <use x="190.833984" xlink:href="#DejaVuSans-97"/>
     <use x="252.113281" xlink:href="#DejaVuSans-98"/>
     <use x="315.589844" xlink:href="#DejaVuSans-108"/>
     <use x="343.373047" xlink:href="#DejaVuSans-101"/>
     <use x="404.896484" xlink:href="#DejaVuSans-32"/>
    </g>
    <!--  inductor -->
    <g transform="translate(1004.135688 230.192104)scale(0.14 -0.14)">
     <use xlink:href="#DejaVuSans-32"/>
     <use x="31.787109" xlink:href="#DejaVuSans-105"/>
     <use x="59.570312" xlink:href="#DejaVuSans-110"/>
     <use x="122.949219" xlink:href="#DejaVuSans-100"/>
     <use x="186.425781" xlink:href="#DejaVuSans-117"/>
     <use x="249.804688" xlink:href="#DejaVuSans-99"/>
     <use x="304.785156" xlink:href="#DejaVuSans-116"/>
     <use x="343.994141" xlink:href="#DejaVuSans-111"/>
     <use x="405.175781" xlink:href="#DejaVuSans-114"/>
    </g>
   </g>
   <g id="patch_46">
    <path clip-path="url(#pb67e36893a)" d="M 128.289375 170.300686 
C 128.898016 170.300686 129.481811 170.058871 129.912185 169.628496 
C 130.342559 169.198122 130.584375 168.614328 130.584375 168.005686 
C 130.584375 167.397045 130.342559 166.813251 129.912185 166.382876 
C 129.481811 165.952502 128.898016 165.710686 128.289375 165.710686 
C 127.680734 165.710686 127.096939 165.952502 126.666565 166.382876 
C 126.236191 166.813251 125.994375 167.397045 125.994375 168.005686 
C 125.994375 168.614328 126.236191 169.198122 126.666565 169.628496 
C 127.096939 170.058871 127.680734 170.300686 128.289375 170.300686 
z
" style="stroke:#000000;stroke-linejoin:miter;stroke-width:2;"/>
   </g>
   <g id="patch_47">
    <path clip-path="url(#pb67e36893a)" d="M 128.289375 78.500686 
C 128.898016 78.500686 129.481811 78.258871 129.912185 77.828496 
C 130.342559 77.398122 130.584375 76.814328 130.584375 76.205686 
C 130.584375 75.597045 130.342559 75.013251 129.912185 74.582876 
C 129.481811 74.152502 128.898016 73.910686 128.289375 73.910686 
C 127.680734 73.910686 127.096939 74.152502 126.666565 74.582876 
C 126.236191 75.013251 125.994375 75.597045 125.994375 76.205686 
C 125.994375 76.814328 126.236191 77.398122 126.666565 77.828496 
C 127.096939 78.258871 127.680734 78.500686 128.289375 78.500686 
z
" style="stroke:#000000;stroke-linejoin:miter;stroke-width:2;"/>
   </g>
   <g id="patch_48">
    <path clip-path="url(#pb67e36893a)" d="M 220.089375 78.500686 
C 220.698016 78.500686 221.281811 78.258871 221.712185 77.828496 
C 222.142559 77.398122 222.384375 76.814328 222.384375 76.205686 
C 222.384375 75.597045 222.142559 75.013251 221.712185 74.582876 
C 221.281811 74.152502 220.698016 73.910686 220.089375 73.910686 
C 219.480734 73.910686 218.896939 74.152502 218.466565 74.582876 
C 218.036191 75.013251 217.794375 75.597045 217.794375 76.205686 
C 217.794375 76.814328 218.036191 77.398122 218.466565 77.828496 
C 218.896939 78.258871 219.480734 78.500686 220.089375 78.500686 
z
" style="stroke:#000000;stroke-linejoin:miter;stroke-width:2;"/>
   </g>
   <g id="patch_49">
    <path clip-path="url(#pb67e36893a)" d="M 220.089375 170.300686 
C 220.698016 170.300686 221.281811 170.058871 221.712185 169.628496 
C 222.142559 169.198122 222.384375 168.614328 222.384375 168.005686 
C 222.384375 167.397045 222.142559 166.813251 221.712185 166.382876 
C 221.281811 165.952502 220.698016 165.710686 220.089375 165.710686 
C 219.480734 165.710686 218.896939 165.952502 218.466565 166.382876 
C 218.036191 166.813251 217.794375 167.397045 217.794375 168.005686 
C 217.794375 168.614328 218.036191 169.198122 218.466565 169.628496 
C 218.896939 170.058871 219.480734 170.300686 220.089375 170.300686 
z
" style="stroke:#000000;stroke-linejoin:miter;stroke-width:2;"/>
   </g>
   <g id="patch_50">
    <path clip-path="url(#pb67e36893a)" d="M 342.489375 78.500686 
C 343.098016 78.500686 343.681811 78.258871 344.112185 77.828496 
C 344.542559 77.398122 344.784375 76.814328 344.784375 76.205686 
C 344.784375 75.597045 344.542559 75.013251 344.112185 74.582876 
C 343.681811 74.152502 343.098016 73.910686 342.489375 73.910686 
C 341.880734 73.910686 341.296939 74.152502 340.866565 74.582876 
C 340.436191 75.013251 340.194375 75.597045 340.194375 76.205686 
C 340.194375 76.814328 340.436191 77.398122 340.866565 77.828496 
C 341.296939 78.258871 341.880734 78.500686 342.489375 78.500686 
z
" style="stroke:#000000;stroke-linejoin:miter;stroke-width:2;"/>
   </g>
   <g id="patch_51">
    <path clip-path="url(#pb67e36893a)" d="M 342.489375 292.700686 
C 343.098016 292.700686 343.681811 292.458871 344.112185 292.028496 
C 344.542559 291.598122 344.784375 291.014328 344.784375 290.405686 
C 344.784375 289.797045 344.542559 289.213251 344.112185 288.782876 
C 343.681811 288.352502 343.098016 288.110686 342.489375 288.110686 
C 341.880734 288.110686 341.296939 288.352502 340.866565 288.782876 
C 340.436191 289.213251 340.194375 289.797045 340.194375 290.405686 
C 340.194375 291.014328 340.436191 291.598122 340.866565 292.028496 
C 341.296939 292.458871 341.880734 292.700686 342.489375 292.700686 
z
" style="stroke:#000000;stroke-linejoin:miter;stroke-width:2;"/>
   </g>
   <g id="patch_52">
    <path clip-path="url(#pb67e36893a)" d="M 342.489375 170.300686 
C 343.098016 170.300686 343.681811 170.058871 344.112185 169.628496 
C 344.542559 169.198122 344.784375 168.614328 344.784375 168.005686 
C 344.784375 167.397045 344.542559 166.813251 344.112185 166.382876 
C 343.681811 165.952502 343.098016 165.710686 342.489375 165.710686 
C 341.880734 165.710686 341.296939 165.952502 340.866565 166.382876 
C 340.436191 166.813251 340.194375 167.397045 340.194375 168.005686 
C 340.194375 168.614328 340.436191 169.198122 340.866565 169.628496 
C 341.296939 170.058871 341.880734 170.300686 342.489375 170.300686 
z
" style="stroke:#000000;stroke-linejoin:miter;stroke-width:2;"/>
   </g>
   <g id="patch_53">
    <path clip-path="url(#pb67e36893a)" d="M 549.039375 99.685302 
C 549.648016 99.685302 550.231811 99.443486 550.662185 99.013112 
C 551.092559 98.582738 551.334375 97.998943 551.334375 97.390302 
C 551.334375 96.781661 551.092559 96.197866 550.662185 95.767492 
C 550.231811 95.337117 549.648016 95.095302 549.039375 95.095302 
C 548.430734 95.095302 547.846939 95.337117 547.416565 95.767492 
C 546.986191 96.197866 546.744375 96.781661 546.744375 97.390302 
C 546.744375 97.998943 546.986191 98.582738 547.416565 99.013112 
C 547.846939 99.443486 548.430734 99.685302 549.039375 99.685302 
z
" style="stroke:#000000;stroke-linejoin:miter;stroke-width:2;"/>
   </g>
   <g id="patch_54">
    <path clip-path="url(#pb67e36893a)" d="M 434.289375 78.500686 
C 434.898016 78.500686 435.481811 78.258871 435.912185 77.828496 
C 436.342559 77.398122 436.584375 76.814328 436.584375 76.205686 
C 436.584375 75.597045 436.342559 75.013251 435.912185 74.582876 
C 435.481811 74.152502 434.898016 73.910686 434.289375 73.910686 
C 433.680734 73.910686 433.096939 74.152502 432.666565 74.582876 
C 432.236191 75.013251 431.994375 75.597045 431.994375 76.205686 
C 431.994375 76.814328 432.236191 77.398122 432.666565 77.828496 
C 433.096939 78.258871 433.680734 78.500686 434.289375 78.500686 
z
" style="stroke:#000000;stroke-linejoin:miter;stroke-width:2;"/>
   </g>
   <g id="patch_55">
    <path clip-path="url(#pb67e36893a)" d="M 342.489375 292.700686 
C 343.098016 292.700686 343.681811 292.458871 344.112185 292.028496 
C 344.542559 291.598122 344.784375 291.014328 344.784375 290.405686 
C 344.784375 289.797045 344.542559 289.213251 344.112185 288.782876 
C 343.681811 288.352502 343.098016 288.110686 342.489375 288.110686 
C 341.880734 288.110686 341.296939 288.352502 340.866565 288.782876 
C 340.436191 289.213251 340.194375 289.797045 340.194375 290.405686 
C 340.194375 291.014328 340.436191 291.598122 340.866565 292.028496 
C 341.296939 292.458871 341.880734 292.700686 342.489375 292.700686 
z
" style="stroke:#000000;stroke-linejoin:miter;stroke-width:2;"/>
   </g>
   <g id="patch_56">
    <path clip-path="url(#pb67e36893a)" d="M 434.289375 292.700686 
C 434.898016 292.700686 435.481811 292.458871 435.912185 292.028496 
C 436.342559 291.598122 436.584375 291.014328 436.584375 290.405686 
C 436.584375 289.797045 436.342559 289.213251 435.912185 288.782876 
C 435.481811 288.352502 434.898016 288.110686 434.289375 288.110686 
C 433.680734 288.110686 433.096939 288.352502 432.666565 288.782876 
C 432.236191 289.213251 431.994375 289.797045 431.994375 290.405686 
C 431.994375 291.014328 432.236191 291.598122 432.666565 292.028496 
C 433.096939 292.458871 433.680734 292.700686 434.289375 292.700686 
z
" style="stroke:#000000;stroke-linejoin:miter;stroke-width:2;"/>
   </g>
   <g id="patch_57">
    <path clip-path="url(#pb67e36893a)" d="M 434.289375 170.300686 
C 434.898016 170.300686 435.481811 170.058871 435.912185 169.628496 
C 436.342559 169.198122 436.584375 168.614328 436.584375 168.005686 
C 436.584375 167.397045 436.342559 166.813251 435.912185 166.382876 
C 435.481811 165.952502 434.898016 165.710686 434.289375 165.710686 
C 433.680734 165.710686 433.096939 165.952502 432.666565 166.382876 
C 432.236191 166.813251 431.994375 167.397045 431.994375 168.005686 
C 431.994375 168.614328 432.236191 169.198122 432.666565 169.628496 
C 433.096939 170.058871 433.680734 170.300686 434.289375 170.300686 
z
" style="stroke:#000000;stroke-linejoin:miter;stroke-width:2;"/>
   </g>
   <g id="patch_58">
    <path clip-path="url(#pb67e36893a)" d="M 434.289375 292.700686 
C 434.898016 292.700686 435.481811 292.458871 435.912185 292.028496 
C 436.342559 291.598122 436.584375 291.014328 436.584375 290.405686 
C 436.584375 289.797045 436.342559 289.213251 435.912185 288.782876 
C 435.481811 288.352502 434.898016 288.110686 434.289375 288.110686 
C 433.680734 288.110686 433.096939 288.352502 432.666565 288.782876 
C 432.236191 289.213251 431.994375 289.797045 431.994375 290.405686 
C 431.994375 291.014328 432.236191 291.598122 432.666565 292.028496 
C 433.096939 292.458871 433.680734 292.700686 434.289375 292.700686 
z
" style="stroke:#000000;stroke-linejoin:miter;stroke-width:2;"/>
   </g>
   <g id="patch_59">
    <path clip-path="url(#pb67e36893a)" d="M 571.989375 214.435302 
C 572.598016 214.435302 573.181811 214.193486 573.612185 213.763112 
C 574.042559 213.332738 574.284375 212.748943 574.284375 212.140302 
C 574.284375 211.531661 574.042559 210.947866 573.612185 210.517492 
C 573.181811 210.087117 572.598016 209.845302 571.989375 209.845302 
C 571.380734 209.845302 570.796939 210.087117 570.366565 210.517492 
C 569.936191 210.947866 569.694375 211.531661 569.694375 212.140302 
C 569.694375 212.748943 569.936191 213.332738 570.366565 213.763112 
C 570.796939 214.193486 571.380734 214.435302 571.989375 214.435302 
z
" style="stroke:#000000;stroke-linejoin:miter;stroke-width:2;"/>
   </g>
   <g id="patch_60">
    <path clip-path="url(#pb67e36893a)" d="M 660.525375 191.485302 
C 661.134016 191.485302 661.717811 191.243486 662.148185 190.813112 
C 662.578559 190.382738 662.820375 189.798943 662.820375 189.190302 
C 662.820375 188.581661 662.578559 187.997866 662.148185 187.567492 
C 661.717811 187.137117 661.134016 186.895302 660.525375 186.895302 
C 659.916734 186.895302 659.332939 187.137117 658.902565 187.567492 
C 658.472191 187.997866 658.230375 188.581661 658.230375 189.190302 
C 658.230375 189.798943 658.472191 190.382738 658.902565 190.813112 
C 659.332939 191.243486 659.916734 191.485302 660.525375 191.485302 
z
" style="stroke:#000000;stroke-linejoin:miter;stroke-width:2;"/>
   </g>
   <g id="patch_61">
    <path clip-path="url(#pb67e36893a)" d="M 775.275375 99.685302 
C 775.884016 99.685302 776.467811 99.443486 776.898185 99.013112 
C 777.328559 98.582738 777.570375 97.998943 777.570375 97.390302 
C 777.570375 96.781661 777.328559 96.197866 776.898185 95.767492 
C 776.467811 95.337117 775.884016 95.095302 775.275375 95.095302 
C 774.666734 95.095302 774.082939 95.337117 773.652565 95.767492 
C 773.222191 96.197866 772.980375 96.781661 772.980375 97.390302 
C 772.980375 97.998943 773.222191 98.582738 773.652565 99.013112 
C 774.082939 99.443486 774.666734 99.685302 775.275375 99.685302 
z
" style="stroke:#000000;stroke-linejoin:miter;stroke-width:2;"/>
   </g>
   <g id="patch_62">
    <path clip-path="url(#pb67e36893a)" d="M 897.675375 69.085302 
C 898.284016 69.085302 898.867811 68.843486 899.298185 68.413112 
C 899.728559 67.982738 899.970375 67.398943 899.970375 66.790302 
C 899.970375 66.181661 899.728559 65.597866 899.298185 65.167492 
C 898.867811 64.737117 898.284016 64.495302 897.675375 64.495302 
C 897.066734 64.495302 896.482939 64.737117 896.052565 65.167492 
C 895.622191 65.597866 895.380375 66.181661 895.380375 66.790302 
C 895.380375 67.398943 895.622191 67.982738 896.052565 68.413112 
C 896.482939 68.843486 897.066734 69.085302 897.675375 69.085302 
z
" style="stroke:#000000;stroke-linejoin:miter;stroke-width:2;"/>
   </g>
   <g id="patch_63">
    <path clip-path="url(#pb67e36893a)" d="M 897.675375 191.485302 
C 898.284016 191.485302 898.867811 191.243486 899.298185 190.813112 
C 899.728559 190.382738 899.970375 189.798943 899.970375 189.190302 
C 899.970375 188.581661 899.728559 187.997866 899.298185 187.567492 
C 898.867811 187.137117 898.284016 186.895302 897.675375 186.895302 
C 897.066734 186.895302 896.482939 187.137117 896.052565 187.567492 
C 895.622191 187.997866 895.380375 188.581661 895.380375 189.190302 
C 895.380375 189.798943 895.622191 190.382738 896.052565 190.813112 
C 896.482939 191.243486 897.066734 191.485302 897.675375 191.485302 
z
" style="stroke:#000000;stroke-linejoin:miter;stroke-width:2;"/>
   </g>
   <g id="patch_64">
    <path clip-path="url(#pb67e36893a)" d="M 989.475375 69.085302 
C 990.084016 69.085302 990.667811 68.843486 991.098185 68.413112 
C 991.528559 67.982738 991.770375 67.398943 991.770375 66.790302 
C 991.770375 66.181661 991.528559 65.597866 991.098185 65.167492 
C 990.667811 64.737117 990.084016 64.495302 989.475375 64.495302 
C 988.866734 64.495302 988.282939 64.737117 987.852565 65.167492 
C 987.422191 65.597866 987.180375 66.181661 987.180375 66.790302 
C 987.180375 67.398943 987.422191 67.982738 987.852565 68.413112 
C 988.282939 68.843486 988.866734 69.085302 989.475375 69.085302 
z
" style="stroke:#000000;stroke-linejoin:miter;stroke-width:2;"/>
   </g>
   <g id="patch_65">
    <path clip-path="url(#pb67e36893a)" d="M 1081.275375 69.085302 
C 1081.884016 69.085302 1082.467811 68.843486 1082.898185 68.413112 
C 1083.328559 67.982738 1083.570375 67.398943 1083.570375 66.790302 
C 1083.570375 66.181661 1083.328559 65.597866 1082.898185 65.167492 
C 1082.467811 64.737117 1081.884016 64.495302 1081.275375 64.495302 
C 1080.666734 64.495302 1080.082939 64.737117 1079.652565 65.167492 
C 1079.222191 65.597866 1078.980375 66.181661 1078.980375 66.790302 
C 1078.980375 67.398943 1079.222191 67.982738 1079.652565 68.413112 
C 1080.082939 68.843486 1080.666734 69.085302 1081.275375 69.085302 
z
" style="stroke:#000000;stroke-linejoin:miter;stroke-width:2;"/>
   </g>
   <g id="patch_66">
    <path clip-path="url(#pb67e36893a)" d="M 1081.275375 160.885302 
C 1081.884016 160.885302 1082.467811 160.643486 1082.898185 160.213112 
C 1083.328559 159.782738 1083.570375 159.198943 1083.570375 158.590302 
C 1083.570375 157.981661 1083.328559 157.397866 1082.898185 156.967492 
C 1082.467811 156.537117 1081.884016 156.295302 1081.275375 156.295302 
C 1080.666734 156.295302 1080.082939 156.537117 1079.652565 156.967492 
C 1079.222191 157.397866 1078.980375 157.981661 1078.980375 158.590302 
C 1078.980375 159.198943 1079.222191 159.782738 1079.652565 160.213112 
C 1080.082939 160.643486 1080.666734 160.885302 1081.275375 160.885302 
z
" style="stroke:#000000;stroke-linejoin:miter;stroke-width:2;"/>
   </g>
   <g id="text_20">
    <!-- DC + -->
    <g transform="translate(300.3975 171.868811)scale(0.14 -0.14)">
     <use xlink:href="#DejaVuSans-68"/>
     <use x="77.001953" xlink:href="#DejaVuSans-67"/>
     <use x="146.826172" xlink:href="#DejaVuSans-32"/>
     <use x="178.613281" xlink:href="#DejaVuSans-43"/>
    </g>
   </g>
   <g id="text_21">
    <!-- DC - -->
    <g transform="translate(398.878125 171.868811)scale(0.14 -0.14)">
     <use xlink:href="#DejaVuSans-68"/>
     <use x="77.001953" xlink:href="#DejaVuSans-67"/>
     <use x="146.826172" xlink:href="#DejaVuSans-32"/>
     <use x="178.613281" xlink:href="#DejaVuSans-45"/>
    </g>
   </g>
  </g>
 </g>
 <defs>
  <clipPath id="pb67e36893a">
   <rect height="392.852052" width="1128.375" x="25.911975" y="7.22325"/>
  </clipPath>
 </defs>
</svg>
